<svg width="227" height="220" viewBox="0 0 227 220" fill="none" xmlns="http://www.w3.org/2000/svg">
<g clip-path="url(#clip0_18_149)">
<path d="M144.175 122.181C144.97 121.939 145.667 121.252 146.117 120.269C146.567 119.286 146.734 118.084 146.581 116.924C146.546 116.668 146.497 116.417 146.432 116.173L154.684 105.819L149.289 103.598L142.279 113.77C141.543 114.282 140.975 115.194 140.697 116.31C140.419 117.427 140.454 118.657 140.795 119.736C141.084 120.641 141.576 121.376 142.191 121.821C142.805 122.265 143.505 122.392 144.175 122.181L144.175 122.181Z" fill="#FFB6B6"/>
<path d="M197.765 195.607L198.065 185.791C201.191 183.358 204.679 182.073 208.224 182.048C203.345 187.854 203.955 199.047 200.646 206.855C199.602 209.278 198.196 211.329 196.533 212.854C194.869 214.38 192.992 215.341 191.039 215.667L186.955 219.305C186.395 214.759 186.518 210.09 187.317 205.62C188.116 201.15 189.571 196.985 191.583 193.412C192.725 191.424 194.034 189.654 195.48 188.142C196.458 191.895 197.765 195.607 197.765 195.607Z" fill="#F2F2F2"/>
<path d="M187.243 214.254L183.546 214.254L181.787 193.497L187.244 193.497L187.243 214.254Z" fill="#FFB6B6"/>
<path d="M188.186 219.47L176.264 219.47V219.25C176.264 217.459 176.753 215.741 177.623 214.475C178.494 213.208 179.674 212.497 180.905 212.497H180.905L183.083 210.092L187.146 212.497L188.187 212.497L188.186 219.47Z" fill="#2F2E41"/>
<path d="M170.065 214.254L166.368 214.254L164.609 193.497L170.066 193.497L170.065 214.254Z" fill="#FFB6B6"/>
<path d="M171.008 219.47L159.086 219.47V219.25C159.086 217.459 159.575 215.741 160.445 214.475C161.315 213.208 162.496 212.497 163.726 212.497H163.727L165.904 210.092L169.968 212.497L171.008 212.497L171.008 219.47Z" fill="#2F2E41"/>
<path d="M168.465 100.774L192.515 101.649C197.083 105.26 197.152 113.075 195.655 122.354C195.655 122.354 196.161 127.869 195.15 129.339C194.14 130.81 193.635 130.81 194.14 133.384C194.645 135.957 191.976 140.161 192.3 140.633C192.624 141.105 193.382 143.678 193.382 143.678L190.856 164.635C190.856 164.635 189.087 201.034 188.582 201.769C188.077 202.504 187.572 201.769 188.077 203.607C188.582 205.446 189.087 204.71 188.582 205.446C188.135 206.148 187.713 206.884 187.319 207.652H181.212C181.212 207.652 180.751 203.975 180.751 203.607C180.751 203.24 180.246 201.034 180.246 200.666C180.246 200.298 180.692 199.649 180.692 199.649C180.847 198.901 180.951 198.134 181.004 197.357C181.004 196.622 182.519 168.312 182.519 168.312L179.488 131.545L172.162 167.576C172.162 167.576 172.162 199.196 171.657 199.931C171.152 200.666 171.152 200.299 171.404 201.769C171.657 203.24 172.667 202.872 171.91 203.975C171.152 205.078 170.899 203.24 171.152 205.078L171.404 206.916L163.826 207.074C163.826 207.074 162.816 203.975 163.321 202.872C163.826 201.769 163.796 202.07 163.179 200.265C162.563 198.46 162.31 198.093 162.563 197.725C162.815 197.357 162.816 195.402 162.816 195.402L164.079 160.223C164.079 160.223 164.331 123.089 164.331 121.986C164.35 121.418 164.278 120.852 164.121 120.332V118.835L165.089 113.53L168.465 100.774Z" fill="#2F2E41"/>
<path d="M143.897 110.238L147.962 115.009L170.12 90.0104L168.809 46.5022C167.563 47.9532 166.526 49.7494 165.76 51.7869C164.994 53.8244 164.513 56.0628 164.345 58.3725L160.549 82.9499L143.897 110.238Z" fill="#E6E6E6"/>
<path d="M164.875 111.764C172.719 113.223 179.945 108.803 186.771 105.467C189.853 103.961 192.957 105.533 195.818 102.987C194.581 85.2524 195.782 65.2764 198.41 43.9886C198.56 42.7835 198.403 41.5401 197.97 40.4905C197.536 39.4409 196.855 38.6567 196.053 38.2843L187.586 34.7485L184.979 30.5627L178.246 33.0504L175.889 39.2508L167.789 47.2159C167.317 47.6806 166.946 48.334 166.723 49.0978C166.499 49.8615 166.432 50.703 166.529 51.5211C168.962 71.5415 168.398 92.0903 164.875 111.764V111.764Z" fill="#E6E6E6"/>
<path d="M189.907 117.253C190.627 116.705 191.169 115.768 191.417 114.643C191.666 113.518 191.601 112.297 191.236 111.241C191.155 111.008 191.06 110.786 190.952 110.577L196.95 97.3392L191.343 97.3447L186.507 109.915C185.894 110.699 185.518 111.803 185.46 112.987C185.403 114.171 185.667 115.341 186.197 116.244C186.645 117 187.256 117.512 187.931 117.695C188.605 117.878 189.302 117.723 189.907 117.253L189.907 117.253Z" fill="#FFB6B6"/>
<path d="M188.213 104.895L191.885 111.764L204.734 83.904L203.622 55.5994C203.481 51.9944 202.715 48.5001 201.396 45.4415C200.078 42.383 198.249 39.8595 196.08 38.1059V38.1059L196.342 81.6141L188.213 104.895Z" fill="#E6E6E6"/>
<path d="M178.988 28.9433C183.526 28.9433 187.205 23.589 187.205 16.9841C187.205 10.3793 183.526 5.02493 178.988 5.02493C174.45 5.02493 170.771 10.3793 170.771 16.9841C170.771 23.589 174.45 28.9433 178.988 28.9433Z" fill="#FFB6B6"/>
<path d="M173.753 9.96555C174.071 9.96917 174.387 10.0296 174.695 10.1455C175.302 10.3578 175.918 10.5082 176.539 10.5956C178.441 10.8561 180.229 12.0368 181.616 13.9492C183.003 15.8616 183.91 18.3953 184.191 21.1457C184.669 20.5399 185.755 19.4254 186.646 20.4612C186.659 20.4776 186.667 20.4861 186.699 20.4645C187.29 20.0561 188.34 15.0301 188.372 10.6048C188.388 8.25599 188.134 5.25668 186.829 4.30687L186.76 4.25683L186.742 4.14805C186.655 3.61971 185.681 2.71782 183.988 2.01586C180.91 0.740202 176.323 -1.7448 173.741 1.91231C173.545 3.14521 172.909 5.78362 172.267 6.08268C171.555 6.41369 170.941 6.69936 170.844 7.96938C170.763 9.77671 170.769 11.5901 170.862 13.3962C171.103 12.291 171.576 11.3237 172.215 10.6304C172.669 10.1855 173.205 9.95347 173.753 9.96555V9.96555Z" fill="#2F2E41"/>
<path d="M227 219.546C227 219.606 226.992 219.665 226.976 219.72C226.961 219.775 226.938 219.825 226.909 219.867C226.88 219.91 226.845 219.943 226.808 219.966C226.77 219.989 226.729 220 226.688 220H0.312048C0.229288 220 0.14992 219.952 0.0914001 219.867C0.0328799 219.782 0 219.666 0 219.546C0 219.425 0.0328799 219.31 0.0914001 219.225C0.14992 219.14 0.229288 219.092 0.312048 219.092H226.688C226.729 219.092 226.77 219.103 226.808 219.126C226.845 219.149 226.88 219.182 226.909 219.224C226.938 219.267 226.961 219.317 226.976 219.372C226.992 219.427 227 219.486 227 219.546Z" fill="#CCCCCC"/>
<path d="M93.687 38.5934L62.8427 48.6931C62.0163 48.9652 61.2978 49.7032 60.8448 50.7453C60.3918 51.7875 60.2413 53.0485 60.4263 54.2519L68.8842 108.967L105.124 97.1005C105.422 97.0045 105.695 96.7856 105.909 96.4702L97.5063 42.1104C97.3194 40.9076 96.8123 39.8618 96.0963 39.2025C95.3802 38.5432 94.5138 38.3242 93.687 38.5934V38.5934Z" fill="#E6E6E6"/>
<path d="M82.4829 46.1275L65.5795 51.6624C64.8269 51.91 64.1726 52.5818 63.7599 53.5305C63.3473 54.4793 63.21 55.6276 63.3782 56.7234L71.3302 108.166L103.517 97.6269L97.7256 60.1634C96.9796 55.3632 94.9559 51.1897 92.0983 48.5583C89.2407 45.927 85.7827 45.0528 82.4829 46.1275V46.1275Z" fill="white"/>
<path d="M97.327 94.8538L76.1074 101.802C76.0164 101.832 75.9303 101.887 75.854 101.965C75.7778 102.043 75.7128 102.142 75.6629 102.257C75.613 102.371 75.5791 102.499 75.5632 102.633C75.5472 102.766 75.5496 102.903 75.57 103.035C75.5905 103.168 75.6287 103.293 75.6824 103.404C75.7361 103.515 75.8044 103.609 75.8832 103.681C75.962 103.754 76.0499 103.803 76.1417 103.826C76.2336 103.849 76.3277 103.845 76.4186 103.815L97.6382 96.867C97.7292 96.8375 97.8154 96.7822 97.8917 96.7043C97.968 96.6263 98.033 96.5272 98.083 96.4126C98.133 96.298 98.1669 96.1702 98.1829 96.0364C98.1988 95.9027 98.1965 95.7657 98.1761 95.6333C98.1556 95.5009 98.1174 95.3756 98.0636 95.2647C98.0098 95.1539 97.9415 95.0595 97.8627 94.9871C97.7838 94.9147 97.6959 94.8656 97.6039 94.8428C97.512 94.8199 97.4179 94.8236 97.327 94.8538Z" fill="#E4E4E4"/>
<path d="M96.7115 90.8726L75.4918 97.8208C75.3082 97.8809 75.1486 98.0448 75.0479 98.2763C74.9473 98.5077 74.914 98.7879 74.9553 99.0551C74.9966 99.3224 75.1092 99.5548 75.2682 99.7012C75.4273 99.8477 75.6198 99.8962 75.8034 99.8361L97.023 92.8879C97.1139 92.8581 97.1999 92.8025 97.276 92.7244C97.3522 92.6463 97.4171 92.547 97.4669 92.4324C97.5167 92.3178 97.5505 92.19 97.5664 92.0564C97.5823 91.9228 97.58 91.7859 97.5595 91.6535C97.5391 91.5212 97.5009 91.3961 97.4472 91.2852C97.3935 91.1744 97.3253 91.08 97.2466 91.0074C97.1678 90.9349 97.0801 90.8857 96.9882 90.8626C96.8964 90.8394 96.8024 90.8429 96.7114 90.8726H96.7115Z" fill="#E4E4E4"/>
<path d="M84.0749 90.8298L74.8765 93.8417C74.6931 93.9018 74.5336 94.0654 74.4331 94.2967C74.3326 94.5279 74.2993 94.8078 74.3405 95.0748C74.3818 95.3417 74.4942 95.5739 74.6531 95.7202C74.812 95.8665 75.0043 95.915 75.1877 95.8549L84.3861 92.843C84.4771 92.8135 84.5633 92.7583 84.6396 92.6803C84.7159 92.6023 84.781 92.5032 84.8309 92.3886C84.8809 92.274 84.9148 92.1462 84.9308 92.0124C84.9468 91.8787 84.9445 91.7417 84.924 91.6093C84.9035 91.4769 84.8653 91.3516 84.8115 91.2408C84.7577 91.1299 84.6895 91.0355 84.6106 90.9631C84.5317 90.8907 84.4438 90.8417 84.3519 90.8188C84.2599 90.7959 84.1658 90.7996 84.0749 90.8298V90.8298Z" fill="#E4E4E4"/>
<path d="M94.8076 78.5574L73.588 85.5056C73.4971 85.5353 73.4111 85.5909 73.335 85.669C73.2588 85.7471 73.1939 85.8464 73.1441 85.961C73.0435 86.1925 73.0102 86.4726 73.0515 86.7399C73.0928 87.0071 73.2054 87.2395 73.3644 87.386C73.5234 87.5324 73.7159 87.5809 73.8996 87.5208L95.1192 80.5726C95.2101 80.5428 95.2961 80.4873 95.3722 80.4091C95.4484 80.331 95.5133 80.2318 95.5631 80.1172C95.6129 80.0025 95.6467 79.8748 95.6626 79.7411C95.6785 79.6075 95.6762 79.4706 95.6557 79.3383C95.6352 79.2059 95.5971 79.0808 95.5434 78.9699C95.4897 78.8591 95.4215 78.7647 95.3428 78.6922C95.264 78.6197 95.1762 78.5704 95.0844 78.5473C94.9926 78.5242 94.8985 78.5276 94.8076 78.5574V78.5574Z" fill="#E4E4E4"/>
<path d="M94.1927 74.5782L72.9731 81.5264C72.8821 81.556 72.796 81.6113 72.7198 81.6893C72.6435 81.7673 72.5786 81.8664 72.5287 81.981C72.4787 82.0956 72.4448 82.2233 72.4289 82.357C72.413 82.4906 72.4153 82.6276 72.4357 82.7599C72.4562 82.8923 72.4944 83.0174 72.5481 83.1283C72.6019 83.2391 72.6701 83.3335 72.7489 83.4059C72.8277 83.4783 72.9156 83.5274 73.0074 83.5503C73.0993 83.5733 73.1934 83.5696 73.2843 83.5396L94.5039 76.5914C94.5948 76.5618 94.6808 76.5064 94.757 76.4283C94.8331 76.3503 94.898 76.2512 94.9478 76.1367C94.9977 76.0221 95.0315 75.8944 95.0474 75.7608C95.0633 75.6272 95.061 75.4904 95.0405 75.3581C95.0201 75.2259 94.9819 75.1008 94.9283 74.99C94.8746 74.8792 94.8064 74.7849 94.7277 74.7125C94.6489 74.64 94.5612 74.5909 94.4694 74.5679C94.3776 74.5448 94.2835 74.5483 94.1927 74.5782V74.5782Z" fill="#E4E4E4"/>
<path d="M81.5559 74.5334L72.3576 77.5453C72.2666 77.5751 72.1807 77.6306 72.1045 77.7088C72.0283 77.7869 71.9635 77.8861 71.9137 78.0007C71.8638 78.1153 71.83 78.2431 71.8141 78.3768C71.7982 78.5104 71.8006 78.6473 71.821 78.7796C71.8415 78.9119 71.8796 79.0371 71.9333 79.148C71.987 79.2588 72.0552 79.3532 72.1339 79.4257C72.2127 79.4982 72.3005 79.5474 72.3923 79.5706C72.4841 79.5937 72.5782 79.5903 72.6691 79.5605L81.8674 76.5486C81.9584 76.5188 82.0444 76.4633 82.1205 76.3851C82.1967 76.307 82.2615 76.2078 82.3114 76.0932C82.3612 75.9786 82.395 75.8508 82.4109 75.7171C82.4268 75.5835 82.4245 75.4466 82.404 75.3143C82.3835 75.182 82.3454 75.0568 82.2917 74.9459C82.238 74.8351 82.1698 74.7407 82.0911 74.6682C82.0123 74.5957 81.9245 74.5464 81.8327 74.5233C81.7409 74.5002 81.6468 74.5036 81.5559 74.5334V74.5334Z" fill="#E4E4E4"/>
<path d="M92.2886 62.2609L71.069 69.2091C70.8854 69.2692 70.7257 69.4331 70.6251 69.6645C70.5245 69.896 70.4911 70.1762 70.5324 70.4434C70.5738 70.7107 70.6863 70.9431 70.8454 71.0895C71.0044 71.236 71.1969 71.2845 71.3805 71.2243L92.6001 64.2761C92.691 64.2464 92.777 64.1908 92.8532 64.1127C92.9294 64.0345 92.9942 63.9353 93.044 63.8207C93.0939 63.7061 93.1277 63.5783 93.1436 63.4447C93.1595 63.311 93.1571 63.1741 93.1367 63.0418C93.1162 62.9095 93.078 62.7843 93.0244 62.6735C92.9707 62.5626 92.9025 62.4682 92.8238 62.3957C92.745 62.3232 92.6572 62.274 92.5654 62.2508C92.4736 62.2277 92.3795 62.2311 92.2886 62.2609V62.2609Z" fill="#E6E6E6"/>
<path d="M91.6739 58.2818L70.4542 65.23C70.3633 65.2598 70.2773 65.3153 70.2012 65.3935C70.125 65.4716 70.0602 65.5708 70.0103 65.6854C69.9097 65.9169 69.8764 66.1971 69.9177 66.4643C69.959 66.7316 70.0716 66.964 70.2306 67.1104C70.3897 67.2569 70.5822 67.3054 70.7658 67.2452L91.9854 60.297C92.0763 60.2673 92.1623 60.2117 92.2385 60.1336C92.3146 60.0554 92.3795 59.9562 92.4293 59.8416C92.4791 59.727 92.5129 59.5992 92.5288 59.4656C92.5447 59.3319 92.5424 59.195 92.5219 59.0627C92.5015 58.9304 92.4633 58.8052 92.4096 58.6944C92.3559 58.5835 92.2878 58.4891 92.209 58.4166C92.1303 58.3441 92.0425 58.2949 91.9506 58.2718C91.8588 58.2486 91.7648 58.252 91.6739 58.2818V58.2818Z" fill="#E6E6E6"/>
<path d="M79.0369 58.2369L69.8385 61.2489C69.6549 61.309 69.4952 61.4728 69.3946 61.7043C69.294 61.9358 69.2607 62.216 69.302 62.4832C69.3433 62.7504 69.4559 62.9828 69.6149 63.1293C69.7739 63.2757 69.9664 63.3242 70.1501 63.2641L79.3484 60.2522C79.4393 60.2224 79.5253 60.1669 79.6015 60.0887C79.6777 60.0106 79.7425 59.9114 79.7923 59.7967C79.8421 59.6821 79.876 59.5543 79.8919 59.4207C79.9078 59.2871 79.9054 59.1502 79.885 59.0179C79.8645 58.8855 79.8263 58.7604 79.7727 58.6495C79.719 58.5387 79.6508 58.4443 79.572 58.3718C79.4933 58.2992 79.4055 58.25 79.3137 58.2269C79.2219 58.2038 79.1278 58.2072 79.0369 58.2369Z" fill="#E6E6E6"/>
<path d="M32.1524 102.077C31.9514 102.078 31.7586 102.194 31.6164 102.401C31.4742 102.608 31.3943 102.889 31.394 103.181V217.313C31.3943 217.605 31.4742 217.886 31.6164 218.093C31.7586 218.3 31.9513 218.416 32.1524 218.417H130.472C130.674 218.416 130.866 218.3 131.008 218.093C131.151 217.886 131.231 217.605 131.231 217.313V121.502C131.231 121.209 131.151 120.929 131.008 120.722C130.866 120.515 130.674 120.398 130.472 120.398H74.0432C73.4704 120.398 72.918 120.088 72.4943 119.527L59.8082 102.75C59.4809 102.317 59.0542 102.077 58.6118 102.077H32.1524Z" fill="#3F3D56"/>
<path d="M149.488 72.226L96.8434 39.2853C95.4319 38.4049 93.838 38.3753 92.4115 39.203C90.9849 40.0308 89.8422 41.6483 89.234 43.7007L61.6484 137.089L123.503 175.792C124.01 176.112 124.57 176.213 125.116 176.082L152.522 83.301C153.127 81.2466 153.147 78.9268 152.579 76.8505C152.01 74.7743 150.899 73.1112 149.488 72.226Z" fill="#E6E6E6"/>
<path d="M127.54 65.9326L98.6888 47.8802C97.4035 47.0782 95.9522 47.0508 94.6531 47.8041C93.354 48.5573 92.3132 50.0298 91.759 51.8984L65.8232 139.701L120.759 174.075L139.647 110.132C142.061 101.933 142.142 92.675 139.873 84.3889C137.603 76.1027 133.167 69.4653 127.54 65.9326V65.9326Z" fill="white"/>
<path d="M113.703 160.421L77.4857 137.759C77.3306 137.662 77.1639 137.61 76.995 137.606C76.8261 137.603 76.6584 137.648 76.5014 137.739C76.3445 137.829 76.2014 137.964 76.0803 138.136C75.9592 138.307 75.8626 138.512 75.7959 138.738C75.7292 138.963 75.6937 139.206 75.6915 139.452C75.6893 139.698 75.7205 139.942 75.7831 140.17C75.8458 140.398 75.9388 140.606 76.0568 140.782C76.1748 140.958 76.3154 141.099 76.4707 141.195L112.688 163.857C112.843 163.955 113.01 164.007 113.179 164.01C113.348 164.014 113.516 163.969 113.673 163.878C113.83 163.787 113.973 163.652 114.094 163.481C114.215 163.309 114.312 163.105 114.378 162.879C114.445 162.653 114.48 162.41 114.483 162.165C114.485 161.919 114.454 161.675 114.391 161.447C114.328 161.218 114.235 161.01 114.117 160.834C113.999 160.658 113.859 160.518 113.703 160.421V160.421Z" fill="#E4E4E4"/>
<path d="M115.711 153.626L79.493 130.964C79.1796 130.768 78.8256 130.762 78.5089 130.946C78.1921 131.13 77.9385 131.489 77.8038 131.945C77.6691 132.401 77.6643 132.916 77.7906 133.377C77.9168 133.838 78.1637 134.208 78.477 134.404L114.695 157.066C114.85 157.163 115.017 157.215 115.185 157.218C115.354 157.221 115.522 157.176 115.679 157.085C115.836 156.994 115.979 156.859 116.1 156.687C116.221 156.516 116.318 156.311 116.384 156.085C116.451 155.86 116.486 155.617 116.489 155.371C116.491 155.125 116.46 154.881 116.397 154.653C116.335 154.424 116.242 154.216 116.124 154.04C116.006 153.864 115.866 153.723 115.711 153.626H115.711Z" fill="#E4E4E4"/>
<path d="M97.1988 133.996L81.499 124.173C81.3439 124.076 81.1772 124.024 81.0084 124.02C80.8396 124.017 80.672 124.062 80.5151 124.153C80.3583 124.244 80.2153 124.379 80.0943 124.55C79.9733 124.721 79.8767 124.926 79.81 125.152C79.7433 125.377 79.7079 125.62 79.7057 125.866C79.7035 126.111 79.7345 126.355 79.7971 126.583C79.8597 126.812 79.9526 127.02 80.0705 127.196C80.1883 127.372 80.3288 127.512 80.484 127.609L96.1838 137.432C96.3388 137.53 96.5055 137.581 96.6743 137.585C96.8432 137.588 97.0108 137.543 97.1676 137.452C97.3245 137.362 97.4675 137.227 97.5885 137.055C97.7095 136.884 97.8061 136.679 97.8727 136.454C97.9394 136.228 97.9749 135.985 97.9771 135.74C97.9793 135.494 97.9482 135.25 97.8856 135.022C97.823 134.794 97.7302 134.585 97.6123 134.41C97.4945 134.234 97.3539 134.093 97.1988 133.996V133.996Z" fill="#E4E4E4"/>
<path d="M121.92 132.606L85.7021 109.945C85.3888 109.749 85.035 109.743 84.7184 109.927C84.4018 110.111 84.1484 110.47 84.0138 110.926C83.8791 111.382 83.8743 111.896 84.0004 112.357C84.1264 112.818 84.3731 113.188 84.6861 113.384L120.904 136.046C121.059 136.144 121.226 136.196 121.395 136.199C121.564 136.203 121.732 136.158 121.889 136.067C122.046 135.976 122.189 135.841 122.31 135.669C122.432 135.497 122.528 135.293 122.595 135.067C122.662 134.841 122.697 134.598 122.7 134.352C122.702 134.106 122.671 133.861 122.608 133.633C122.545 133.404 122.452 133.196 122.334 133.02C122.216 132.844 122.075 132.703 121.92 132.606V132.606Z" fill="#E4E4E4"/>
<path d="M123.926 125.815L87.7079 103.153C87.5528 103.056 87.3861 103.004 87.2172 103C87.0483 102.996 86.8805 103.041 86.7236 103.132C86.5666 103.223 86.4235 103.358 86.3025 103.529C86.1814 103.701 86.0848 103.905 86.018 104.131C85.9513 104.357 85.9159 104.6 85.9137 104.846C85.9115 105.091 85.9426 105.336 86.0053 105.564C86.068 105.792 86.161 106 86.279 106.176C86.397 106.352 86.5376 106.492 86.6929 106.589L122.911 129.251C123.066 129.348 123.232 129.4 123.401 129.404C123.57 129.408 123.738 129.363 123.895 129.272C124.052 129.181 124.195 129.046 124.316 128.875C124.437 128.703 124.534 128.499 124.6 128.273C124.667 128.047 124.703 127.804 124.705 127.558C124.707 127.313 124.676 127.068 124.613 126.84C124.55 126.612 124.457 126.404 124.339 126.228C124.221 126.052 124.081 125.912 123.926 125.815V125.815Z" fill="#E4E4E4"/>
<path d="M105.415 106.182L89.7151 96.358C89.4018 96.1621 89.0478 96.1554 88.731 96.3393C88.4143 96.5232 88.1607 96.8827 88.026 97.3387C87.8913 97.7947 87.8865 98.3099 88.0127 98.771C88.139 99.2321 88.3859 99.6013 88.6991 99.7976L104.399 109.621C104.554 109.718 104.721 109.77 104.89 109.773C105.059 109.777 105.227 109.732 105.383 109.641C105.54 109.55 105.684 109.415 105.805 109.243C105.926 109.071 106.022 108.867 106.089 108.641C106.156 108.415 106.191 108.172 106.193 107.926C106.196 107.681 106.165 107.436 106.102 107.208C106.039 106.98 105.947 106.771 105.829 106.595C105.711 106.419 105.57 106.279 105.415 106.182V106.182Z" fill="#E4E4E4"/>
<path d="M130.136 104.792L93.918 82.1298C93.6047 81.9345 93.251 81.9282 92.9345 82.1122C92.618 82.2962 92.3647 82.6555 92.2301 83.1112C92.0955 83.5669 92.0906 84.0817 92.2166 84.5426C92.3426 85.0035 92.5891 85.3728 92.902 85.5693L129.12 108.231C129.275 108.328 129.442 108.38 129.611 108.384C129.78 108.387 129.947 108.342 130.104 108.251C130.261 108.16 130.404 108.025 130.525 107.853C130.646 107.682 130.743 107.477 130.81 107.251C130.877 107.025 130.912 106.782 130.914 106.537C130.917 106.291 130.885 106.047 130.823 105.818C130.76 105.59 130.667 105.382 130.549 105.205C130.432 105.029 130.291 104.889 130.136 104.792V104.792Z" fill="#52658F"/>
<path d="M132.142 98.0001L95.9243 75.3382C95.6109 75.1428 95.2571 75.1363 94.9406 75.3203C94.624 75.5043 94.3706 75.8637 94.2359 76.3194C94.1013 76.7752 94.0965 77.2902 94.2225 77.7511C94.3486 78.2121 94.5952 78.5813 94.9082 78.7778L131.126 101.44C131.281 101.538 131.448 101.59 131.617 101.594C131.787 101.598 131.955 101.553 132.112 101.462C132.269 101.371 132.413 101.236 132.534 101.064C132.655 100.893 132.752 100.688 132.819 100.461C132.886 100.235 132.921 99.992 132.924 99.7457C132.926 99.4994 132.894 99.2549 132.831 99.0263C132.769 98.7976 132.675 98.5893 132.557 98.4132C132.439 98.2371 132.298 98.0968 132.142 98.0001V98.0001Z" fill="#52658F"/>
<path d="M113.631 78.3667L97.9314 68.5432C97.6181 68.3473 97.2641 68.3406 96.9473 68.5245C96.6306 68.7084 96.377 69.0679 96.2423 69.5239C96.1076 69.9799 96.1028 70.4951 96.2291 70.9562C96.3553 71.4173 96.6022 71.7865 96.9154 71.9828L112.615 81.8063C112.77 81.9035 112.937 81.9553 113.106 81.9587C113.275 81.962 113.443 81.9169 113.6 81.8259C113.757 81.7348 113.9 81.5997 114.021 81.4282C114.142 81.2567 114.239 81.0521 114.305 80.8262C114.372 80.6003 114.408 80.3575 114.41 80.1116C114.412 79.8657 114.381 79.6216 114.318 79.3932C114.256 79.1648 114.163 78.9566 114.045 78.7805C113.927 78.6043 113.786 78.4638 113.631 78.3667V78.3667Z" fill="#52658F"/>
<path d="M74.5444 106.146L43.7002 116.245C42.8738 116.517 42.1553 117.255 41.7023 118.298C41.2493 119.34 41.0988 120.601 41.2838 121.804L49.7416 176.519L85.9817 164.653C86.2795 164.557 86.552 164.338 86.7666 164.022L78.3637 109.663C78.1768 108.46 77.6697 107.414 76.9537 106.755C76.2377 106.095 75.3712 105.876 74.5444 106.146Z" fill="#E6E6E6"/>
<path d="M63.3403 113.68L46.4369 119.215C45.6843 119.462 45.03 120.134 44.6173 121.083C44.2047 122.031 44.0674 123.18 44.2357 124.276L52.1876 175.718L84.3741 165.179L78.583 127.716C77.837 122.915 75.8133 118.742 72.9557 116.111C70.0981 113.479 66.6402 112.605 63.3403 113.68V113.68Z" fill="white"/>
<path d="M78.1844 162.406L56.9648 169.354C56.8738 169.384 56.7877 169.439 56.7115 169.517C56.6352 169.595 56.5703 169.694 56.5204 169.809C56.4704 169.923 56.4365 170.051 56.4206 170.185C56.4047 170.318 56.407 170.455 56.4274 170.588C56.4479 170.72 56.4861 170.845 56.5398 170.956C56.5936 171.067 56.6618 171.161 56.7406 171.234C56.8194 171.306 56.9073 171.355 56.9991 171.378C57.091 171.401 57.1851 171.397 57.276 171.367L78.4956 164.419C78.5866 164.39 78.6728 164.334 78.7491 164.256C78.8254 164.178 78.8904 164.079 78.9404 163.965C78.9904 163.85 79.0243 163.722 79.0403 163.589C79.0563 163.455 79.054 163.318 79.0335 163.185C79.013 163.053 78.9748 162.928 78.921 162.817C78.8672 162.706 78.7989 162.612 78.7201 162.539C78.6412 162.467 78.5533 162.418 78.4613 162.395C78.3694 162.372 78.2753 162.376 78.1844 162.406V162.406Z" fill="#E4E4E4"/>
<path d="M77.5689 158.425L56.3493 165.373C56.1657 165.433 56.006 165.597 55.9054 165.828C55.8047 166.06 55.7714 166.34 55.8127 166.607C55.854 166.875 55.9666 167.107 56.1256 167.253C56.2847 167.4 56.4772 167.448 56.6608 167.388L77.8804 160.44C78.064 160.38 78.2237 160.216 78.3243 159.985C78.4249 159.753 78.4582 159.473 78.4169 159.206C78.3756 158.938 78.2631 158.706 78.104 158.56C77.945 158.413 77.7525 158.365 77.5689 158.425V158.425Z" fill="#E4E4E4"/>
<path d="M64.9328 158.382L55.7344 161.394C55.6436 161.424 55.5577 161.479 55.4816 161.557C55.4055 161.635 55.3408 161.734 55.291 161.849C55.2412 161.963 55.2074 162.091 55.1915 162.225C55.1757 162.358 55.178 162.495 55.1984 162.627C55.2189 162.759 55.257 162.884 55.3106 162.995C55.3643 163.106 55.4324 163.2 55.511 163.272C55.5897 163.345 55.6774 163.394 55.7691 163.417C55.8609 163.44 55.9548 163.437 56.0456 163.407L65.244 160.395C65.335 160.366 65.4212 160.31 65.4975 160.232C65.5739 160.154 65.6389 160.055 65.6888 159.941C65.7388 159.826 65.7727 159.698 65.7887 159.565C65.8047 159.431 65.8024 159.294 65.7819 159.161C65.7614 159.029 65.7232 158.904 65.6694 158.793C65.6156 158.682 65.5474 158.588 65.4685 158.515C65.3896 158.443 65.3017 158.394 65.2098 158.371C65.1178 158.348 65.0237 158.352 64.9328 158.382V158.382Z" fill="#E4E4E4"/>
<path d="M75.6655 146.11L54.4459 153.058C54.355 153.087 54.269 153.143 54.1929 153.221C54.1167 153.299 54.0519 153.399 54.002 153.513C53.9014 153.745 53.8681 154.025 53.9094 154.292C53.9507 154.559 54.0633 154.792 54.2223 154.938C54.3814 155.085 54.5739 155.133 54.7575 155.073L75.9771 148.125C76.1607 148.065 76.3204 147.901 76.421 147.669C76.5216 147.438 76.5549 147.158 76.5136 146.89C76.4723 146.623 76.3598 146.391 76.2007 146.244C76.0417 146.098 75.8492 146.049 75.6655 146.11V146.11Z" fill="#E4E4E4"/>
<path d="M75.0501 142.13L53.8305 149.079C53.7395 149.108 53.6535 149.163 53.5772 149.241C53.5009 149.319 53.436 149.419 53.3861 149.533C53.3362 149.648 53.3023 149.776 53.2863 149.909C53.2704 150.043 53.2727 150.18 53.2932 150.312C53.3136 150.444 53.3518 150.57 53.4056 150.68C53.4593 150.791 53.5275 150.886 53.6063 150.958C53.6851 151.03 53.773 151.08 53.8649 151.103C53.9567 151.125 54.0508 151.122 54.1417 151.092L75.3613 144.144C75.4522 144.114 75.5382 144.059 75.6144 143.981C75.6905 143.902 75.7554 143.803 75.8052 143.689C75.8551 143.574 75.8889 143.447 75.9048 143.313C75.9208 143.179 75.9184 143.043 75.898 142.91C75.8775 142.778 75.8394 142.653 75.7857 142.542C75.732 142.431 75.6638 142.337 75.5851 142.265C75.5064 142.192 75.4186 142.143 75.3268 142.12C75.235 142.097 75.141 142.101 75.0501 142.13V142.13Z" fill="#E4E4E4"/>
<path d="M62.4138 142.086L53.2155 145.097C53.0319 145.158 52.8722 145.321 52.7716 145.553C52.6709 145.784 52.6376 146.065 52.6789 146.332C52.7202 146.599 52.8328 146.831 52.9918 146.978C53.1509 147.124 53.3434 147.173 53.527 147.113L62.7254 144.101C62.909 144.041 63.0687 143.877 63.1693 143.645C63.2699 143.414 63.3032 143.134 63.2619 142.866C63.2206 142.599 63.108 142.367 62.949 142.22C62.7899 142.074 62.5974 142.025 62.4138 142.086Z" fill="#E4E4E4"/>
<path d="M73.1465 129.813L51.9269 136.761C51.836 136.791 51.75 136.847 51.6738 136.925C51.5977 137.003 51.5328 137.102 51.483 137.217C51.3824 137.448 51.349 137.728 51.3904 137.996C51.4317 138.263 51.5442 138.495 51.7033 138.642C51.8623 138.788 52.0548 138.837 52.2384 138.777L73.458 131.828C73.5489 131.799 73.6349 131.743 73.7111 131.665C73.7873 131.587 73.8521 131.487 73.9019 131.373C73.9518 131.258 73.9856 131.13 74.0015 130.997C74.0174 130.863 74.015 130.726 73.9946 130.594C73.9741 130.462 73.936 130.337 73.8823 130.226C73.8286 130.115 73.7604 130.02 73.6817 129.948C73.6029 129.875 73.5151 129.826 73.4233 129.803C73.3315 129.78 73.2374 129.783 73.1465 129.813H73.1465Z" fill="#E6E6E6"/>
<path d="M72.5313 125.834L51.3117 132.782C51.2208 132.812 51.1348 132.867 51.0586 132.946C50.9824 133.024 50.9176 133.123 50.8678 133.238C50.7671 133.469 50.7338 133.749 50.7751 134.017C50.8164 134.284 50.929 134.516 51.088 134.663C51.2471 134.809 51.4396 134.858 51.6232 134.797L72.8428 127.849C73.0264 127.789 73.1861 127.625 73.2867 127.394C73.3873 127.162 73.4207 126.882 73.3793 126.615C73.338 126.348 73.2255 126.115 73.0664 125.969C72.9074 125.822 72.7149 125.774 72.5313 125.834H72.5313Z" fill="#E6E6E6"/>
<path d="M59.8948 125.789L50.6964 128.801C50.5128 128.861 50.3531 129.025 50.2525 129.256C50.1519 129.488 50.1186 129.768 50.1599 130.035C50.2012 130.303 50.3138 130.535 50.4728 130.681C50.6319 130.828 50.8244 130.876 51.008 130.816L60.2063 127.804C60.2972 127.775 60.3832 127.719 60.4594 127.641C60.5356 127.563 60.6004 127.464 60.6502 127.349C60.7001 127.234 60.7339 127.107 60.7498 126.973C60.7657 126.839 60.7633 126.702 60.7429 126.57C60.7224 126.438 60.6843 126.313 60.6306 126.202C60.5769 126.091 60.5087 125.996 60.43 125.924C60.3512 125.851 60.2634 125.802 60.1716 125.779C60.0798 125.756 59.9857 125.759 59.8948 125.789Z" fill="#E6E6E6"/>
<path d="M31.5011 132.055C31.4015 132.054 31.3029 132.083 31.2109 132.138C31.1189 132.194 31.0353 132.275 30.9649 132.378C30.8944 132.48 30.8386 132.602 30.8004 132.736C30.7623 132.869 30.7427 133.013 30.7427 133.158C30.7427 133.199 30.766 218.2 30.766 218.2C30.7868 218.47 30.8751 218.719 31.0142 218.9C31.1532 219.08 31.3332 219.18 31.5197 219.18H137.137C137.323 219.18 137.503 219.08 137.642 218.9C137.781 218.719 137.869 218.47 137.89 218.2L144.464 133.282C144.476 133.127 144.466 132.971 144.433 132.823C144.401 132.675 144.347 132.539 144.276 132.423C144.205 132.306 144.118 132.213 144.021 132.15C143.923 132.086 143.818 132.054 143.711 132.055L31.5011 132.055Z" fill="#3F3D56"/>
<path d="M38.954 136.76C37.8825 136.765 36.8552 137.383 36.0942 138.481C35.3332 139.579 34.8997 141.068 34.8872 142.628L35.0191 208.504C35.0144 209.285 35.1161 210.06 35.3184 210.785C35.5207 211.509 35.8195 212.167 36.1976 212.722C36.5757 213.278 37.0257 213.718 37.5214 214.019C38.0172 214.32 38.5489 214.474 39.086 214.474H106.131C113.82 214.482 121.242 210.363 126.975 202.905C132.709 195.448 136.352 185.176 137.208 174.054L139.586 143.342C139.65 142.514 139.593 141.676 139.419 140.882C139.245 140.088 138.958 139.356 138.577 138.735C138.195 138.114 137.728 137.617 137.205 137.276C136.683 136.936 136.117 136.76 135.544 136.76H38.954ZM141.696 136.76L141.684 136.379H141.696V136.76Z" fill="#52658F"/>
<path d="M68.2401 186.114H42.2678C41.9994 186.114 41.742 185.959 41.5522 185.683C41.3625 185.407 41.2559 185.032 41.2559 184.641C41.2559 184.251 41.3625 183.876 41.5522 183.6C41.742 183.324 41.9994 183.169 42.2678 183.169H68.2401C69.5451 183.142 69.5582 186.141 68.2401 186.114Z" fill="#E4E4E4"/>
<path d="M103.228 193.818H42.2678C41.9994 193.818 41.742 193.663 41.5522 193.387C41.3625 193.111 41.2559 192.736 41.2559 192.346C41.2559 191.955 41.3625 191.58 41.5522 191.304C41.742 191.028 41.9994 190.873 42.2678 190.873H103.228C104.533 190.846 104.546 193.845 103.228 193.818Z" fill="#E4E4E4"/>
</g>
<defs>
<clipPath id="clip0_18_149">
<rect width="227" height="220" fill="white"/>
</clipPath>
</defs>
</svg>
