<svg width="232" height="227" viewBox="0 0 232 227" fill="none" xmlns="http://www.w3.org/2000/svg">
<path d="M222.648 89.9822C222.648 129.362 199.353 162.831 166.909 175.03C153.85 179.913 139.878 181.198 126.248 178.769C124.955 178.54 123.671 178.277 122.396 177.979C120.668 177.58 118.961 177.122 117.274 176.604C82.4413 165.959 56.9111 131.208 56.9111 89.9822C56.9111 40.2861 94.0123 0 139.78 0C185.547 0 222.648 40.2861 222.648 89.9822Z" fill="#E6E6E6"/>
<path d="M87.8758 117.755C87.73 117.84 87.621 117.984 87.5729 118.156C87.5248 118.328 87.5414 118.513 87.6192 118.672L118.776 182.038C118.854 182.196 118.986 182.314 119.145 182.367C119.303 182.419 119.474 182.401 119.62 182.316L163.663 156.783C163.808 156.699 163.917 156.555 163.965 156.383C164.014 156.211 163.997 156.025 163.919 155.867L132.763 92.5006C132.685 92.3422 132.552 92.2239 132.394 92.1716C132.235 92.1194 132.064 92.1375 131.918 92.222L87.8758 117.755Z" fill="#3F3D56"/>
<path d="M91.9696 119.606L120.481 177.592L159.569 154.932L131.057 96.9459L91.9696 119.606ZM89.4928 121.042L89.4983 121.039L89.4922 121.042L89.4928 121.042Z" fill="white"/>
<path d="M101.825 125.981C101.218 126.333 101.088 127.361 101.536 128.272C101.984 129.183 102.842 129.638 103.45 129.286L132.077 112.689C132.685 112.337 132.814 111.31 132.366 110.399C131.918 109.488 131.06 109.033 130.453 109.385L101.825 125.981Z" fill="#52658F"/>
<path d="M105.352 133.155C104.745 133.507 104.616 134.535 105.064 135.445C105.512 136.356 106.37 136.811 106.977 136.459L135.605 119.863C136.212 119.511 136.341 118.483 135.893 117.572C135.445 116.662 134.587 116.206 133.98 116.558L105.352 133.155Z" fill="#52658F"/>
<path d="M108.88 140.328C108.272 140.68 108.143 141.708 108.591 142.619C109.039 143.53 109.897 143.985 110.504 143.633L139.132 127.036C139.739 126.684 139.869 125.657 139.421 124.746C138.973 123.835 138.114 123.38 137.507 123.732L108.88 140.328Z" fill="#52658F"/>
<path d="M112.407 147.502C111.8 147.854 111.67 148.882 112.118 149.792C112.566 150.703 113.425 151.158 114.032 150.806L142.659 134.21C143.267 133.858 143.396 132.83 142.948 131.919C142.5 131.009 141.642 130.553 141.035 130.905L112.407 147.502Z" fill="#52658F"/>
<path d="M115.934 154.675C115.327 155.027 115.198 156.055 115.646 156.966C116.094 157.877 116.952 158.332 117.559 157.98L146.187 141.383C146.794 141.031 146.923 140.004 146.475 139.093C146.028 138.182 145.169 137.727 144.562 138.079L115.934 154.675Z" fill="#52658F"/>
<path d="M121.493 90.3783L147.433 92.0983L154.698 68.5741L131.946 63.3541L121.493 90.3783Z" fill="#2F2E41"/>
<path d="M140.201 84.4298C145.93 84.4298 150.575 79.3863 150.575 73.1647C150.575 66.9431 145.93 61.8996 140.201 61.8996C134.471 61.8996 129.826 66.9431 129.826 73.1647C129.826 79.3863 134.471 84.4298 140.201 84.4298Z" fill="#FFB8B8"/>
<path d="M166.842 174.154L166.909 175.03C153.85 179.913 139.878 181.198 126.248 178.769L122.396 177.979L126.062 169.15L128.465 163.363L127.6 143.341L127.508 141.269L127.395 138.626L128.961 138.616L140.091 138.543L150.699 138.47L152.317 138.46C162.46 152.007 170.829 163.017 166.842 174.154Z" fill="#2F2E41"/>
<path d="M152.164 138.294L127.395 141.282L126.478 122.688C123.571 114.638 125.49 107.453 131.523 101.005L132.749 95.7334C133.071 94.3498 133.736 93.0885 134.672 92.0867C135.608 91.0849 136.779 90.381 138.058 90.0515C142.112 87.5266 146.705 86.3232 151.858 86.4958C153.916 87.3684 155.661 88.9366 156.835 90.9686C158.01 93.0007 158.551 95.389 158.379 97.7807C157.313 112.393 155.4 126.072 152.164 138.294Z" fill="#52658F"/>
<path d="M132.352 59.855C132.352 59.855 126.988 61.9806 126.85 69.7087C126.843 71.0092 127.002 72.3044 127.325 73.5568C127.673 74.9771 127.952 78.0588 125.613 82.1669C124.084 84.8333 122.703 87.5956 121.475 90.4393V90.4393L127.515 91.0721L128.514 80.1996C128.998 74.9283 130.194 69.7632 132.064 64.8704L132.103 64.7683C132.103 64.7683 134.874 69.998 140.141 69.8369L138.207 67.852C138.207 67.852 144.803 70.5494 148.39 71.091C148.8 71.1528 149.186 71.3348 149.507 71.6173C149.828 71.8998 150.072 72.2721 150.213 72.6941C150.354 73.116 150.386 73.5717 150.306 74.012C150.226 74.4523 150.036 74.8605 149.758 75.1927C149.737 75.2177 149.716 75.2428 149.694 75.268C147.5 77.7879 143.135 83.6447 145.884 88.0574C148.634 92.4702 146.409 93.7647 146.409 93.7647L150.483 91.1872L152.333 89.9042L152.375 91.5381L162.124 90.0135C162.124 90.0135 164.747 89.5245 158.924 82.7529C158.924 82.7529 157.364 80.1018 157.955 77.7561C158.445 75.9721 158.537 74.0872 158.224 72.257C156.761 64.638 151.406 49.5653 132.352 59.855Z" fill="#2F2E41"/>
<path d="M139.78 226.17C160.383 226.17 177.086 225.129 177.086 223.846C177.086 222.562 160.383 221.521 139.78 221.521C119.176 221.521 102.474 222.562 102.474 223.846C102.474 225.129 119.176 226.17 139.78 226.17Z" fill="#E6E6E6"/>
<path d="M0.226997 107.093C0.148675 107.116 0.0818645 107.171 0.0412275 107.247C0.000590434 107.324 -0.0105553 107.414 0.0102409 107.499L8.35523 141.509C8.37618 141.594 8.42734 141.666 8.4975 141.711C8.56766 141.755 8.65107 141.767 8.72943 141.744L32.3678 134.905C32.4461 134.883 32.5129 134.827 32.5536 134.751C32.5942 134.675 32.6053 134.584 32.5845 134.499L24.2396 100.49C24.2186 100.405 24.1675 100.332 24.0973 100.288C24.0271 100.244 23.9437 100.232 23.8654 100.254L0.226997 107.093Z" fill="#F2F2F2"/>
<path d="M6.03523 112.71C5.70931 112.804 5.54191 113.279 5.66186 113.768C5.78181 114.256 6.14449 114.578 6.47041 114.483L21.8353 110.038C22.1613 109.944 22.3287 109.469 22.2087 108.98C22.0888 108.492 21.7261 108.17 21.4002 108.265L6.03523 112.71Z" fill="white"/>
<path d="M6.98054 116.56C6.65462 116.654 6.48722 117.129 6.60718 117.618C6.72713 118.106 7.0898 118.428 7.41572 118.333L22.7807 113.888C23.1066 113.794 23.274 113.319 23.154 112.83C23.0341 112.342 22.6714 112.02 22.3455 112.115L6.98054 116.56Z" fill="white"/>
<path d="M7.92488 120.41C7.59896 120.504 7.43156 120.979 7.55151 121.468C7.67146 121.957 8.03414 122.278 8.36006 122.184L23.725 117.738C24.0509 117.644 24.2183 117.169 24.0984 116.681C23.9784 116.192 23.6157 115.871 23.2898 115.965L7.92488 120.41Z" fill="white"/>
<path d="M8.87019 124.26C8.54427 124.354 8.37687 124.829 8.49682 125.318C8.61678 125.807 8.97945 126.128 9.30537 126.034L24.6703 121.589C24.9962 121.494 25.1636 121.02 25.0437 120.531C24.9237 120.042 24.561 119.721 24.2351 119.815L8.87019 124.26Z" fill="white"/>
<path d="M9.81453 128.11C9.4886 128.205 9.32121 128.679 9.44116 129.168C9.56111 129.657 9.92379 129.978 10.2497 129.884L25.6146 125.439C25.9406 125.344 26.108 124.87 25.988 124.381C25.8681 123.892 25.5054 123.571 25.1795 123.665L9.81453 128.11Z" fill="white"/>
<path d="M10.7589 131.96C10.4329 132.055 10.2655 132.529 10.3855 133.018C10.5054 133.507 10.8681 133.828 11.1941 133.734L26.559 129.289C26.8849 129.194 27.0523 128.72 26.9323 128.231C26.8124 127.742 26.4497 127.421 26.1238 127.515L10.7589 131.96Z" fill="white"/>
<path d="M60.6367 226.923C60.6367 226.965 60.7738 227 60.9425 227H93.356C93.5247 227 93.6618 226.965 93.6618 226.923V220.768C93.6618 220.726 93.5247 220.691 93.356 220.691H60.9425C60.7738 220.691 60.6367 220.726 60.6367 220.768V226.923Z" fill="#F2F2F2"/>
<path d="M67.1299 225.846C67.1299 225.931 67.5091 226 67.975 226C68.441 226 68.8202 225.931 68.8202 225.846V221.845C68.8202 221.76 68.441 221.691 67.975 221.691C67.5091 221.691 67.1299 221.76 67.1299 221.845V225.846Z" fill="white"/>
<path d="M70.7998 225.846C70.7998 225.931 71.1791 226 71.645 226C72.1109 226 72.4901 225.931 72.4901 225.846V221.845C72.4901 221.76 72.1109 221.691 71.645 221.691C71.1791 221.691 70.7998 221.76 70.7998 221.845V225.846Z" fill="white"/>
<path d="M74.4688 225.846C74.4688 225.931 74.848 226 75.3139 226C75.7798 226 76.1591 225.931 76.1591 225.846V221.845C76.1591 221.76 75.7798 221.691 75.3139 221.691C74.848 221.691 74.4688 221.76 74.4688 221.845V225.846Z" fill="white"/>
<path d="M78.1387 225.846C78.1387 225.931 78.5179 226 78.9838 226C79.4497 226 79.829 225.931 79.829 225.846V221.845C79.829 221.76 79.4497 221.691 78.9838 221.691C78.5179 221.691 78.1387 221.76 78.1387 221.845V225.846Z" fill="white"/>
<path d="M81.8086 225.846C81.8086 225.931 82.1878 226 82.6538 226C83.1197 226 83.4989 225.931 83.4989 225.846V221.845C83.4989 221.76 83.1197 221.691 82.6538 221.691C82.1878 221.691 81.8086 221.76 81.8086 221.845V225.846Z" fill="white"/>
<path d="M85.4775 225.846C85.4775 225.931 85.8568 226 86.3227 226C86.7886 226 87.1679 225.931 87.1679 225.846V221.845C87.1679 221.76 86.7886 221.691 86.3227 221.691C85.8568 221.691 85.4775 221.76 85.4775 221.845V225.846Z" fill="white"/>
<path d="M1.09428 82.5503C1.0228 82.5919 0.969411 82.6625 0.94584 82.7468C0.922268 82.831 0.930436 82.9219 0.968549 82.9996L16.2345 114.048C16.2728 114.125 16.3378 114.183 16.4154 114.209C16.493 114.234 16.5767 114.226 16.6483 114.184L38.2282 101.674C38.2997 101.632 38.3531 101.561 38.3766 101.477C38.4002 101.393 38.3921 101.302 38.3539 101.224L23.088 70.1763C23.0497 70.0987 22.9847 70.0407 22.9071 70.0152C22.8295 69.9896 22.7458 69.9984 22.6742 70.0398L1.09428 82.5503Z" fill="#E6E6E6"/>
<path d="M3.09963 83.4576L17.0695 111.869L36.2217 100.766L22.2518 72.3545L3.09963 83.4576ZM1.88604 84.1611L1.88873 84.1596L1.88574 84.1612L1.88604 84.1611Z" fill="white"/>
<path d="M7.92937 86.5812C7.63184 86.7537 7.56849 87.2572 7.78792 87.7035C8.00736 88.1498 8.42794 88.3728 8.72547 88.2003L22.7524 80.0685C23.05 79.896 23.1133 79.3924 22.8939 78.9461C22.6744 78.4998 22.2539 78.2768 21.9563 78.4493L7.92937 86.5812Z" fill="#52658F"/>
<path d="M9.65691 90.0961C9.35938 90.2686 9.29603 90.7721 9.51546 91.2184C9.7349 91.6647 10.1555 91.8877 10.453 91.7152L24.48 83.5833C24.7775 83.4108 24.8408 82.9073 24.6214 82.461C24.402 82.0147 23.9814 81.7917 23.6839 81.9642L9.65691 90.0961Z" fill="#52658F"/>
<path d="M11.3854 93.6109C11.0879 93.7834 11.0245 94.287 11.244 94.7332C11.4634 95.1795 11.884 95.4025 12.1815 95.23L26.2085 87.0982C26.506 86.9257 26.5694 86.4221 26.3499 85.9759C26.1305 85.5296 25.7099 85.3066 25.4124 85.4791L11.3854 93.6109Z" fill="#52658F"/>
<path d="M13.1139 97.1258C12.8164 97.2983 12.7531 97.8018 12.9725 98.2481C13.1919 98.6944 13.6125 98.9174 13.91 98.7449L27.937 90.613C28.2345 90.4405 28.2979 89.937 28.0784 89.4907C27.859 89.0444 27.4384 88.8214 27.1409 88.9939L13.1139 97.1258Z" fill="#52658F"/>
<path d="M14.8415 100.641C14.5439 100.813 14.4806 101.317 14.7 101.763C14.9195 102.209 15.3401 102.432 15.6376 102.26L29.6645 94.1279C29.9621 93.9554 30.0254 93.4519 29.806 93.0056C29.5866 92.5593 29.166 92.3363 28.8684 92.5088L14.8415 100.641Z" fill="#52658F"/>
<path d="M16.57 104.156C16.2725 104.328 16.2091 104.832 16.4286 105.278C16.648 105.724 17.0686 105.947 17.3661 105.775L31.3931 97.6428C31.6906 97.4703 31.7539 96.9667 31.5345 96.5204C31.3151 96.0742 30.8945 95.8512 30.597 96.0237L16.57 104.156Z" fill="#52658F"/>
<path d="M210.79 161.893C210.72 161.849 210.636 161.836 210.558 161.858C210.479 161.88 210.412 161.934 210.371 162.01L193.88 192.311C193.839 192.387 193.827 192.477 193.848 192.562C193.868 192.648 193.918 192.721 193.988 192.766L215.049 206.28C215.118 206.324 215.202 206.337 215.28 206.315C215.359 206.293 215.426 206.238 215.467 206.163L231.958 175.862C231.999 175.786 232.011 175.696 231.991 175.61C231.97 175.525 231.92 175.452 231.85 175.407L210.79 161.893Z" fill="#E6E6E6"/>
<path d="M211.118 164.226L196.028 191.954L214.719 203.947L229.81 176.219L211.118 164.226ZM209.934 163.466L209.937 163.467L209.934 163.465L209.934 163.466Z" fill="white"/>
<path d="M211.171 170.329C210.881 170.142 210.452 170.345 210.214 170.781C209.977 171.216 210.021 171.722 210.311 171.909L224 180.693C224.291 180.879 224.72 180.676 224.957 180.241C225.194 179.805 225.151 179.299 224.86 179.113L211.171 170.329Z" fill="#52658F"/>
<path d="M209.305 173.759C209.014 173.573 208.585 173.776 208.348 174.211C208.111 174.647 208.154 175.153 208.445 175.339L222.134 184.123C222.425 184.309 222.854 184.106 223.091 183.671C223.328 183.235 223.285 182.729 222.994 182.543L209.305 173.759Z" fill="#52658F"/>
<path d="M207.438 177.189C207.147 177.003 206.718 177.206 206.481 177.641C206.244 178.077 206.287 178.583 206.578 178.769L220.267 187.553C220.557 187.74 220.986 187.537 221.223 187.101C221.461 186.666 221.417 186.16 221.127 185.973L207.438 177.189Z" fill="#52658F"/>
<path d="M205.57 180.619C205.28 180.433 204.851 180.636 204.614 181.072C204.377 181.507 204.42 182.013 204.71 182.2L218.4 190.984C218.69 191.17 219.119 190.967 219.356 190.531C219.593 190.096 219.55 189.59 219.26 189.403L205.57 180.619Z" fill="#52658F"/>
<path d="M203.704 184.05C203.414 183.863 202.985 184.066 202.748 184.502C202.511 184.937 202.554 185.444 202.844 185.63L216.534 194.414C216.824 194.6 217.253 194.397 217.49 193.962C217.727 193.526 217.684 193.02 217.394 192.834L203.704 184.05Z" fill="#52658F"/>
<path d="M201.837 187.48C201.547 187.294 201.118 187.497 200.881 187.932C200.643 188.368 200.687 188.874 200.977 189.06L214.666 197.844C214.957 198.031 215.386 197.828 215.623 197.392C215.86 196.956 215.817 196.45 215.526 196.264L201.837 187.48Z" fill="#52658F"/>
<path d="M134.734 106.75L134.416 108.888L131.065 131.321L128.961 138.616L128.221 141.182L127.6 143.341L120.057 169.505L117.987 174.786C116.851 175.242 115.875 176.072 115.195 177.16C114.515 178.248 114.166 179.539 114.195 180.854C114.224 182.168 114.631 183.44 115.359 184.491C116.086 185.542 117.098 186.319 118.253 186.715C119.408 187.111 120.647 187.105 121.799 186.698C122.95 186.292 123.956 185.504 124.675 184.446C125.394 183.388 125.791 182.113 125.809 180.798C125.828 179.484 125.468 178.196 124.779 177.114L139.545 139.818L140.092 138.543L141.767 134.641L144.932 108.712L145.131 107.082L134.734 106.75Z" fill="#FFB8B8"/>
<path d="M146.966 109.406C142.16 107.531 137.55 107.332 133.205 109.406L134.623 96.0601C134.571 94.3934 135.123 92.7712 136.161 91.5422C137.199 90.3131 138.64 89.5755 140.174 89.4878C141.726 89.3991 143.248 89.9837 144.404 91.1131C145.559 92.2424 146.254 93.824 146.336 95.5099L146.337 95.5318L146.966 109.406Z" fill="#52658F"/>
</svg>
