<svg width="242" height="248" viewBox="0 0 242 248" fill="none" xmlns="http://www.w3.org/2000/svg">
<g clip-path="url(#clip0_18_536)">
<path d="M105.769 205.109H4.79487C3.52363 205.107 2.30487 204.534 1.40597 203.516C0.507064 202.498 0.00143069 201.117 0 199.677V44.4083C0.00143069 42.9683 0.507063 41.5878 1.40597 40.5696C2.30487 39.5514 3.52363 38.9787 4.79487 38.9771H105.769C107.04 38.9787 108.259 39.5514 109.158 40.5696C110.057 41.5878 110.563 42.9683 110.564 44.4083V199.677C110.563 201.117 110.057 202.498 109.158 203.516C108.259 204.534 107.04 205.107 105.769 205.109V205.109Z" fill="white"/>
<path d="M50.7297 79.3862C50.7297 83.8706 49.4773 88.24 47.1517 91.869C44.8261 95.4981 41.5466 98.2008 37.7825 99.5903C37.67 99.6309 37.5575 99.6714 37.4432 99.7101C36.9556 99.88 36.4612 100.025 35.9582 100.148C35.048 100.372 34.1242 100.517 33.1946 100.583C32.7906 100.614 32.3842 100.629 31.9756 100.629C29.8642 100.632 27.7677 100.229 25.7747 99.4397C25.7168 99.4165 25.6589 99.3934 25.6026 99.3702C22.3736 98.0492 19.5266 95.7497 17.3719 92.7223C15.2172 89.6948 13.8374 86.0556 13.3829 82.2011C12.9284 78.3466 13.4165 74.4247 14.7942 70.8628C16.1719 67.3009 18.3863 64.2356 21.196 62.001C24.0057 59.7664 27.3029 58.4482 30.7285 58.19C34.154 57.9318 37.5764 58.7436 40.6227 60.5368C43.669 62.3301 46.2224 65.036 48.0046 68.3597C49.7868 71.6834 50.7294 75.4975 50.7297 79.3862V79.3862Z" fill="white"/>
<path d="M31.5269 93.4606C36.5663 93.4606 40.6515 88.8332 40.6515 83.1251C40.6515 77.4169 36.5663 72.7895 31.5269 72.7895C26.4876 72.7895 22.4023 77.4169 22.4023 83.1251C22.4023 88.8332 26.4876 93.4606 31.5269 93.4606Z" fill="#52658F"/>
<path d="M32.0593 88.6938L32.0688 88.3076C31.4344 88.2876 30.8752 88.2425 30.4549 87.8948C30.3358 87.7906 30.2379 87.6585 30.1678 87.5076C30.0977 87.3567 30.0572 87.1905 30.0489 87.0203C30.0415 86.9163 30.0554 86.8117 30.0895 86.7147C30.1236 86.6178 30.177 86.5311 30.2455 86.4613C30.4042 86.3523 30.586 86.2937 30.7717 86.2919C30.9574 86.29 31.14 86.3449 31.3005 86.4507L31.5826 86.5973L31.0416 82.1187L30.7038 82.1712L31.164 85.9807C30.9756 85.9016 30.7727 85.8771 30.5738 85.9095C30.375 85.9419 30.1864 86.0302 30.0254 86.1663C29.9171 86.2734 29.8321 86.4075 29.777 86.558C29.722 86.7085 29.6985 86.8713 29.7082 87.0338C29.7182 87.2626 29.7721 87.4861 29.8664 87.6887C29.9606 87.8913 30.0929 88.0681 30.2538 88.2067C30.7938 88.6537 31.4955 88.6759 32.0593 88.6938Z" fill="#2F2E41"/>
<path d="M29.0327 82.4997H27.1963V82.8859H29.0327V82.4997Z" fill="#2F2E41"/>
<path d="M34.8296 82.4997H32.9932V82.8859H34.8296V82.4997Z" fill="#2F2E41"/>
<path d="M34.1186 97.5742C34.1428 97.4472 34.1554 97.3178 34.1561 97.1879C34.1555 96.7016 33.9846 96.2354 33.681 95.8915C33.3774 95.5476 32.9658 95.3541 32.5365 95.3533H30.1496C29.7201 95.3537 29.3084 95.5472 29.0047 95.8911C28.701 96.2351 28.5303 96.7015 28.5299 97.1879C28.5298 97.3185 28.5424 97.4486 28.5673 97.5761C27.6663 97.8977 26.8146 98.3752 26.0424 98.9917C25.8923 99.1095 25.7441 99.2369 25.6025 99.3702C25.6588 99.3933 25.7168 99.4165 25.7747 99.4397C27.7676 100.229 29.8641 100.632 31.9755 100.629C32.3847 100.629 32.791 100.614 33.1945 100.583C34.1241 100.517 35.048 100.372 35.9582 100.148C36.4612 100.025 36.9556 99.88 37.4432 99.71C36.4785 98.7434 35.3461 98.0159 34.1186 97.5742V97.5742Z" fill="#2F2E41"/>
<path d="M33.8125 100.338C33.5913 100.356 33.3783 100.441 33.1953 100.583C34.1249 100.517 35.0488 100.372 35.959 100.148L33.8125 100.338Z" fill="#2F2E41"/>
<path d="M39.8019 80.6698L23.9506 74.1013C23.7807 74.0309 23.6425 73.887 23.5664 73.7012C23.4902 73.5154 23.4823 73.3029 23.5444 73.1105L23.5981 72.8233C24.836 68.9902 28.9392 66.5779 32.3232 67.9801L37.201 70.0014C40.585 71.4037 42.0557 75.9425 40.8178 79.7756L40.6767 80.2097C40.6145 80.4021 40.4874 80.5587 40.3234 80.645C40.1594 80.7313 39.9718 80.7402 39.8019 80.6698V80.6698Z" fill="#2F2E41"/>
<path d="M40.6564 81.0343C18.5628 81.9577 16.6323 78.8133 23.364 73.8687L24.7922 70.8921L41.1594 77.6513L40.6564 81.0343Z" fill="#2F2E41"/>
<path d="M36.3237 69.53C36.4457 69.0704 35.9232 68.4862 35.1567 68.2252C34.3902 67.9642 33.67 68.1253 33.548 68.5849C33.426 69.0446 33.9485 69.6288 34.715 69.8897C35.4815 70.1507 36.2017 69.9897 36.3237 69.53Z" fill="#2F2E41"/>
<path d="M31.9756 101.209C29.8066 101.211 27.6529 100.798 25.6057 99.9865L25.4277 99.9146C21.1395 98.1592 17.5399 94.738 15.2691 90.2592C12.9983 85.7805 12.2035 80.5346 13.0261 75.4546C13.8486 70.3745 16.2352 65.7896 19.7613 62.5151C23.2875 59.2407 27.7246 57.489 32.2837 57.5716C36.8428 57.6542 41.2282 59.5657 44.6601 62.9662C48.092 66.3667 50.3479 71.0358 51.0266 76.143C51.7053 81.2503 50.7628 86.4647 48.3667 90.8588C45.9706 95.253 42.2763 98.5422 37.9407 100.141C37.8195 100.185 37.7055 100.226 37.5896 100.265C37.1054 100.434 36.5916 100.586 36.0667 100.715C35.1311 100.944 34.1815 101.094 33.226 101.161C32.8155 101.193 32.3938 101.209 31.9756 101.209ZM31.9756 58.7225C27.6828 58.7232 23.5277 60.4384 20.2411 63.5664C16.9545 66.6945 14.7468 71.035 14.0064 75.8246C13.266 80.6143 14.0403 85.5463 16.193 89.7531C18.3458 93.96 21.7392 97.1724 25.7763 98.8252L25.9452 98.8934C27.8833 99.6616 29.9223 100.053 31.9756 100.05C32.3709 100.05 32.7694 100.035 33.1601 100.005C34.0649 99.941 34.9642 99.7997 35.8501 99.5821C36.3467 99.4602 36.8321 99.3169 37.2929 99.1564C37.407 99.1178 37.5153 99.0787 37.6236 99.0397C41.753 97.5162 45.2672 94.3742 47.5345 90.1785C49.8018 85.9829 50.6735 81.0087 49.9929 76.1502C49.3122 71.2918 47.1239 66.8676 43.8214 63.6731C40.5188 60.4786 36.3185 58.7232 31.9756 58.7225V58.7225Z" fill="#CCCCCC"/>
<path d="M105.769 205.109H4.79487C3.52363 205.107 2.30487 204.534 1.40597 203.516C0.507064 202.498 0.00143069 201.117 0 199.677V44.4083C0.00143069 42.9683 0.507063 41.5878 1.40597 40.5696C2.30487 39.5514 3.52363 38.9787 4.79487 38.9771H105.769C107.04 38.9787 108.259 39.5514 109.158 40.5696C110.057 41.5878 110.563 42.9683 110.564 44.4083V199.677C110.563 201.117 110.057 202.498 109.158 203.516C108.259 204.534 107.04 205.107 105.769 205.109V205.109ZM4.79487 39.616C3.67319 39.6175 2.59782 40.1228 1.80467 41.0212C1.01153 41.9196 0.565374 43.1377 0.564103 44.4083V199.677C0.565374 200.948 1.01152 202.166 1.80466 203.064C2.59781 203.963 3.67319 204.468 4.79487 204.47H105.769C106.891 204.468 107.966 203.963 108.759 203.064C109.553 202.166 109.999 200.948 110 199.677V44.4083C109.999 43.1377 109.553 41.9196 108.759 41.0212C107.966 40.1228 106.891 39.6175 105.769 39.616H4.79487Z" fill="#CCCCCC"/>
<path d="M86.2215 79.3035H57.6492C57.0502 79.3027 56.476 79.0326 56.0527 78.5525C55.6294 78.0724 55.3916 77.4217 55.3916 76.7431C55.3916 76.0646 55.6294 75.4139 56.0527 74.9338C56.476 74.4537 57.0502 74.1836 57.6492 74.1828H86.2215C86.5185 74.1824 86.8128 74.2483 87.0873 74.3768C87.3619 74.5052 87.6114 74.6938 87.8216 74.9316C88.0318 75.1694 88.1985 75.4517 88.3123 75.7626C88.4261 76.0734 88.4847 76.4066 88.4847 76.7431C88.4847 77.0796 88.4261 77.4129 88.3123 77.7237C88.1985 78.0345 88.0318 78.3169 87.8216 78.5547C87.6114 78.7925 87.3619 78.9811 87.0873 79.1095C86.8128 79.238 86.5185 79.3039 86.2215 79.3035V79.3035Z" fill="#E6E6E6"/>
<path d="M95.5456 87.9448H57.6492C57.0502 87.944 56.476 87.6738 56.0527 87.1938C55.6294 86.7137 55.3916 86.0629 55.3916 85.3844C55.3916 84.7059 55.6294 84.0552 56.0527 83.5751C56.476 83.095 57.0502 82.8249 57.6492 82.824H95.5456C96.1446 82.8249 96.7188 83.095 97.1421 83.5751C97.5654 84.0552 97.8032 84.7059 97.8032 85.3844C97.8032 86.0629 97.5654 86.7137 97.1421 87.1938C96.7188 87.6738 96.1446 87.944 95.5456 87.9448V87.9448Z" fill="#E6E6E6"/>
<path d="M86.1801 121.088H15.0181C14.721 121.088 14.4268 121.022 14.1522 120.894C13.8776 120.765 13.6281 120.577 13.4179 120.339C13.2077 120.101 13.041 119.819 12.9272 119.508C12.8134 119.197 12.7549 118.864 12.7549 118.527C12.7549 118.191 12.8134 117.858 12.9272 117.547C13.041 117.236 13.2077 116.954 13.4179 116.716C13.6281 116.478 13.8776 116.289 14.1522 116.161C14.4268 116.032 14.721 115.967 15.0181 115.967H86.1801C86.7791 115.968 87.3533 116.238 87.7766 116.718C88.1999 117.198 88.4377 117.849 88.4377 118.527C88.4377 119.206 88.1999 119.857 87.7766 120.337C87.3533 120.817 86.7791 121.087 86.1801 121.088V121.088Z" fill="#E6E6E6"/>
<path d="M95.5042 129.729H15.0181C14.721 129.729 14.4268 129.663 14.1522 129.535C13.8776 129.406 13.6281 129.218 13.4179 128.98C13.2077 128.742 13.041 128.46 12.9272 128.149C12.8134 127.838 12.7549 127.505 12.7549 127.169C12.7549 126.832 12.8134 126.499 12.9272 126.188C13.041 125.877 13.2077 125.595 13.4179 125.357C13.6281 125.119 13.8776 124.931 14.1522 124.802C14.4268 124.674 14.721 124.608 15.0181 124.608H95.5042C95.8012 124.608 96.0955 124.674 96.37 124.802C96.6446 124.931 96.8941 125.119 97.1043 125.357C97.3145 125.595 97.4813 125.877 97.595 126.188C97.7088 126.499 97.7674 126.832 97.7674 127.169C97.7674 127.505 97.7088 127.838 97.595 128.149C97.4813 128.46 97.3145 128.742 97.1043 128.98C96.8941 129.218 96.6446 129.406 96.37 129.535C96.0955 129.663 95.8012 129.729 95.5042 129.729V129.729Z" fill="#E6E6E6"/>
<path d="M86.1802 149.59H15.0182C14.4187 149.59 13.8438 149.32 13.4199 148.84C12.996 148.36 12.7578 147.709 12.7578 147.03C12.7578 146.35 12.996 145.699 13.4199 145.219C13.8438 144.739 14.4187 144.469 15.0182 144.469H86.1802C86.7797 144.469 87.3546 144.739 87.7785 145.219C88.2024 145.699 88.4406 146.35 88.4406 147.03C88.4406 147.709 88.2024 148.36 87.7785 148.84C87.3546 149.32 86.7797 149.59 86.1802 149.59V149.59Z" fill="#E6E6E6"/>
<path d="M95.5043 158.231H15.0182C14.4187 158.231 13.8438 157.961 13.4199 157.481C12.996 157.001 12.7578 156.35 12.7578 155.671C12.7578 154.992 12.996 154.341 13.4199 153.86C13.8438 153.38 14.4187 153.11 15.0182 153.11H95.5043C96.1038 153.11 96.6787 153.38 97.1026 153.86C97.5265 154.341 97.7647 154.992 97.7647 155.671C97.7647 156.35 97.5265 157.001 97.1026 157.481C96.6787 157.961 96.1038 158.231 95.5043 158.231V158.231Z" fill="#E6E6E6"/>
<path d="M86.1802 178.092H15.0182C14.4187 178.092 13.8438 177.822 13.4199 177.342C12.996 176.862 12.7578 176.211 12.7578 175.532C12.7578 174.853 12.996 174.201 13.4199 173.721C13.8438 173.241 14.4187 172.971 15.0182 172.971H86.1802C86.7797 172.971 87.3546 173.241 87.7785 173.721C88.2024 174.201 88.4406 174.853 88.4406 175.532C88.4406 176.211 88.2024 176.862 87.7785 177.342C87.3546 177.822 86.7797 178.092 86.1802 178.092V178.092Z" fill="#E6E6E6"/>
<path d="M95.5043 186.733H15.0182C14.4187 186.733 13.8438 186.464 13.4199 185.984C12.996 185.503 12.7578 184.852 12.7578 184.173C12.7578 183.494 12.996 182.843 13.4199 182.363C13.8438 181.882 14.4187 181.613 15.0182 181.613H95.5043C96.1038 181.613 96.6787 181.882 97.1026 182.363C97.5265 182.843 97.7647 183.494 97.7647 184.173C97.7647 184.852 97.5265 185.503 97.1026 185.984C96.6787 186.464 96.1038 186.733 95.5043 186.733V186.733Z" fill="#E6E6E6"/>
<path d="M237.205 166.131L136.231 166.132C134.959 166.13 133.741 165.557 132.842 164.539C131.943 163.521 131.437 162.14 131.436 160.7L131.436 5.43132C131.437 3.99137 131.943 2.61086 132.842 1.59265C133.74 0.574453 134.959 0.0017115 136.23 8.98907e-05L237.205 0C238.476 0.00161953 239.695 0.574352 240.594 1.59255C241.493 2.61075 241.998 3.99126 242 5.43122L242 160.7C241.998 162.14 241.493 163.521 240.594 164.539C239.695 165.557 238.476 166.13 237.205 166.131V166.131Z" fill="white"/>
<path d="M237.205 166.131L136.231 166.132C134.959 166.13 133.741 165.557 132.842 164.539C131.943 163.521 131.437 162.14 131.436 160.7L131.436 5.43132C131.437 3.99137 131.943 2.61086 132.842 1.59265C133.74 0.574453 134.959 0.0017115 136.23 8.98907e-05L237.205 0C238.476 0.00161953 239.695 0.574352 240.594 1.59255C241.493 2.61075 241.998 3.99126 242 5.43122L242 160.7C241.998 162.14 241.493 163.521 240.594 164.539C239.695 165.557 238.476 166.13 237.205 166.131V166.131ZM136.23 0.639057C135.109 0.640498 134.033 1.14586 133.24 2.04427C132.447 2.94268 132.001 4.16077 132 5.43132L132 160.7C132.001 161.971 132.447 163.189 133.24 164.087C134.033 164.986 135.109 165.491 136.231 165.493L237.205 165.492C238.327 165.491 239.402 164.986 240.195 164.087C240.988 163.189 241.434 161.971 241.436 160.7L241.436 5.43122C241.434 4.16068 240.988 2.94259 240.195 2.04418C239.402 1.14576 238.326 0.640406 237.205 0.638967L136.23 0.639057Z" fill="#CCCCCC"/>
<path d="M182.213 40.1976C182.213 44.3991 181.113 48.5062 179.053 51.9996C176.992 55.493 174.063 58.2158 170.636 59.8236C167.209 61.4315 163.438 61.8522 159.8 61.0325C156.163 60.2128 152.821 58.1896 150.198 55.2187C147.575 52.2478 145.789 48.4627 145.065 44.3419C144.342 40.2212 144.713 35.9499 146.133 32.0682C147.552 28.1866 149.956 24.8688 153.04 22.5346C156.124 20.2004 159.75 18.9545 163.459 18.9545C168.433 18.9563 173.202 21.1949 176.719 25.1784C180.235 29.1619 182.212 34.5641 182.213 40.1976V40.1976Z" fill="white"/>
<path d="M172.127 43.8325C171.922 57.4185 154.081 57.4164 153.878 43.832C154.083 30.2464 171.924 30.2485 172.127 43.8325Z" fill="#52658F"/>
<path d="M162.64 48.0494L162.631 47.6632C164.981 48.0186 165.487 44.7194 163.117 45.9528L163.658 41.4743L163.996 41.5267L163.536 45.3363C166.031 44.9156 165.108 48.4354 162.64 48.0494Z" fill="#2F2E41"/>
<path d="M167.502 41.8553H165.666V42.2415H167.502V41.8553Z" fill="#2F2E41"/>
<path d="M161.707 41.8553H159.87V42.2415H161.707V41.8553Z" fill="#2F2E41"/>
<path d="M165.961 58.2832C166.319 55.5467 163.49 56.0874 161.993 56.0604C161.752 56.0612 161.514 56.123 161.296 56.2413C161.079 56.3596 160.887 56.5314 160.736 56.7442C160.584 56.9569 160.476 57.2053 160.42 57.4712C160.364 57.7371 160.361 58.0138 160.411 58.2812C159.253 58.6869 158.18 59.3573 157.259 60.2511C161.14 61.7839 165.357 61.8368 169.267 60.4017C168.313 59.4321 167.185 58.7092 165.961 58.2832Z" fill="#2F2E41"/>
<path d="M158.713 38.944C160.404 37.837 162.454 38.6863 164.201 39.1506C167.515 40.3046 172.163 38.8596 172.566 34.3878C172.985 30.229 167.962 27.9112 166.357 32.0504L166.825 31.9812C161.618 23.217 152.562 23.5494 152.622 35.5986C152.602 35.9708 153.114 35.9696 153.133 35.5984C152.941 28.498 157.09 23.6444 162.954 28.2074C164.264 29.3688 165.419 30.7383 166.383 32.2736C166.994 33.0489 167.126 29.7101 170.049 30.5846C173.266 31.9963 172.217 37.214 169.341 38.3595C165.789 40.4155 161.941 36.4292 158.454 38.4435C158.398 38.4837 158.358 38.5469 158.342 38.62C158.327 38.693 158.337 38.7701 158.37 38.835C158.404 38.9 158.458 38.9476 158.522 38.9679C158.586 38.9883 158.654 38.9797 158.713 38.944V38.944Z" fill="#2F2E41"/>
<path d="M163.459 62.02C158.616 62.0154 153.952 59.9431 150.398 56.2163C146.844 52.4896 144.661 47.3823 144.284 41.9131C143.907 36.4439 145.364 31.0147 148.364 26.7084C151.365 22.402 155.688 19.5349 160.471 18.679C165.255 17.823 170.148 19.041 174.174 22.0902C178.2 25.1393 181.064 29.7954 182.193 35.1299C183.323 40.4644 182.636 46.0853 180.269 50.8714C177.902 55.6576 174.03 59.2573 169.424 60.9527C167.498 61.6623 165.484 62.0225 163.459 62.02ZM163.459 19.5339C159.85 19.5333 156.322 20.7449 153.321 23.0156C150.32 25.2863 147.982 28.5139 146.6 32.2904C145.219 36.0668 144.857 40.2225 145.561 44.2317C146.265 48.2409 148.003 51.9236 150.555 54.8141C153.107 57.7045 156.358 59.6729 159.897 60.4702C163.437 61.2675 167.106 60.858 170.44 59.2934C173.774 57.7289 176.623 55.0795 178.628 51.6805C180.632 48.2814 181.702 44.2853 181.701 40.1976C181.696 34.7191 179.772 29.4668 176.352 25.5929C172.932 21.7191 168.295 19.54 163.459 19.5339V19.5339Z" fill="#CCCCCC"/>
<path d="M217.658 40.3265L189.086 40.3265C188.486 40.3265 187.911 40.0568 187.487 39.5766C187.063 39.0965 186.825 38.4452 186.825 37.7661C186.825 37.0871 187.063 36.4359 187.487 35.9557C187.911 35.4755 188.486 35.2058 189.086 35.2058L217.658 35.2057C218.257 35.2057 218.832 35.4755 219.256 35.9557C219.68 36.4358 219.918 37.0871 219.918 37.7661C219.918 38.4452 219.68 39.0964 219.256 39.5766C218.832 40.0567 218.257 40.3265 217.658 40.3265V40.3265Z" fill="#E6E6E6"/>
<path d="M226.982 48.9678L189.085 48.9678C188.788 48.9682 188.494 48.9023 188.22 48.7738C187.945 48.6453 187.695 48.4568 187.485 48.219C187.275 47.9812 187.108 47.6988 186.995 47.388C186.881 47.0771 186.822 46.7439 186.822 46.4074C186.822 46.0709 186.881 45.7377 186.995 45.4269C187.108 45.116 187.275 44.8336 187.485 44.5958C187.695 44.3581 187.945 44.1695 188.22 44.041C188.494 43.9126 188.788 43.8466 189.085 43.8471L226.982 43.847C227.581 43.847 228.156 44.1168 228.58 44.5969C229.004 45.0771 229.242 45.7283 229.242 46.4074C229.242 47.0865 229.004 47.7377 228.58 48.2179C228.156 48.698 227.581 48.9678 226.982 48.9678Z" fill="#E6E6E6"/>
<path d="M217.616 82.1107L146.454 82.1107C145.855 82.1099 145.281 81.8398 144.857 81.3597C144.434 80.8796 144.196 80.2289 144.196 79.5503C144.196 78.8718 144.434 78.2211 144.857 77.741C145.281 77.2609 145.855 76.9908 146.454 76.99L217.616 76.9899C218.215 76.9899 218.79 77.2597 219.214 77.7398C219.638 78.22 219.876 78.8712 219.876 79.5503C219.876 80.2293 219.638 80.8806 219.214 81.3607C218.79 81.8409 218.215 82.1107 217.616 82.1107V82.1107Z" fill="#E6E6E6"/>
<path d="M226.94 90.7519L146.454 90.752C146.157 90.7524 145.862 90.6865 145.588 90.558C145.313 90.4295 145.064 90.241 144.853 90.0032C144.643 89.7654 144.477 89.483 144.363 89.1722C144.249 88.8613 144.19 88.5281 144.19 88.1916C144.19 87.8551 144.249 87.5219 144.363 87.2111C144.477 86.9002 144.643 86.6178 144.853 86.38C145.064 86.1422 145.313 85.9537 145.588 85.8252C145.862 85.6967 146.157 85.6308 146.454 85.6312L226.94 85.6312C227.539 85.6312 228.114 85.9009 228.538 86.3811C228.962 86.8612 229.2 87.5125 229.2 88.1915C229.2 88.8706 228.962 89.5218 228.538 90.002C228.114 90.4822 227.539 90.7519 226.94 90.7519V90.7519Z" fill="#E6E6E6"/>
<path d="M217.616 110.613L146.454 110.613C145.855 110.612 145.281 110.342 144.857 109.862C144.434 109.382 144.196 108.731 144.196 108.053C144.196 107.374 144.434 106.723 144.857 106.243C145.281 105.763 145.855 105.493 146.454 105.492L217.616 105.492C218.215 105.492 218.79 105.762 219.214 106.242C219.638 106.722 219.876 107.373 219.876 108.053C219.876 108.732 219.638 109.383 219.214 109.863C218.79 110.343 218.215 110.613 217.616 110.613Z" fill="#E6E6E6"/>
<path d="M226.94 119.254L146.454 119.254C146.157 119.255 145.862 119.189 145.588 119.06C145.313 118.932 145.064 118.743 144.853 118.505C144.643 118.268 144.477 117.985 144.363 117.674C144.249 117.364 144.19 117.03 144.19 116.694C144.19 116.357 144.249 116.024 144.363 115.713C144.477 115.402 144.643 115.12 144.853 114.882C145.064 114.644 145.313 114.456 145.588 114.327C145.862 114.199 146.157 114.133 146.454 114.133L226.94 114.133C227.539 114.133 228.114 114.403 228.538 114.883C228.962 115.364 229.2 116.015 229.2 116.694C229.2 117.373 228.962 118.024 228.538 118.504C228.114 118.984 227.539 119.254 226.94 119.254V119.254Z" fill="#E6E6E6"/>
<path d="M217.616 139.115L146.454 139.115C145.854 139.115 145.279 138.845 144.855 138.365C144.431 137.885 144.193 137.234 144.193 136.555C144.193 135.876 144.431 135.225 144.855 134.744C145.279 134.264 145.854 133.994 146.454 133.994L217.616 133.994C218.215 133.994 218.79 134.264 219.214 134.744C219.638 135.224 219.876 135.876 219.876 136.555C219.876 137.234 219.638 137.885 219.214 138.365C218.79 138.845 218.215 139.115 217.616 139.115V139.115Z" fill="#E6E6E6"/>
<path d="M226.94 147.756L146.454 147.756C145.854 147.756 145.279 147.487 144.855 147.007C144.432 146.526 144.193 145.875 144.193 145.196C144.193 144.517 144.432 143.866 144.855 143.386C145.279 142.905 145.854 142.636 146.454 142.636L226.94 142.636C227.539 142.636 228.114 142.905 228.538 143.386C228.962 143.866 229.2 144.517 229.2 145.196C229.2 145.875 228.962 146.526 228.538 147.006C228.114 147.487 227.539 147.756 226.94 147.756V147.756Z" fill="#E6E6E6"/>
<path d="M176.282 232.904H75.3076C74.0363 232.902 72.8176 232.329 71.9187 231.311C71.0198 230.293 70.5141 228.912 70.5127 227.472V72.2033C70.5141 70.7634 71.0198 69.3829 71.9187 68.3647C72.8176 67.3465 74.0363 66.7737 75.3076 66.7721H176.282C177.553 66.7737 178.772 67.3465 179.671 68.3647C180.57 69.3829 181.075 70.7634 181.077 72.2033V227.472C181.075 228.912 180.57 230.293 179.671 231.311C178.772 232.329 177.553 232.902 176.282 232.904V232.904Z" fill="white"/>
<path d="M83.7295 106.745C83.7262 109.541 84.2118 112.31 85.1581 114.892C86.1044 117.474 87.4928 119.819 89.2432 121.79C89.3899 121.955 89.5399 122.119 89.6916 122.279C90.6056 123.246 91.6029 124.107 92.6684 124.849C92.873 124.992 93.0776 125.13 93.2873 125.263C94.3649 125.951 95.5003 126.515 96.6767 126.949C96.8795 127.024 97.0858 127.095 97.2921 127.161C101.032 128.376 105.011 128.249 108.684 126.798C108.756 126.769 108.828 126.74 108.898 126.711C112.122 125.382 114.963 123.077 117.111 120.046C119.259 117.016 120.632 113.375 121.08 109.522C121.529 105.669 121.035 101.75 119.654 98.1925C118.272 94.6348 116.055 91.5746 113.245 89.345C110.434 87.1154 107.138 85.8018 103.714 85.5471C100.29 85.2925 96.8702 86.1067 93.8265 87.901C90.7828 89.6952 88.232 92.4009 86.4517 95.7234C84.6714 99.0459 83.7298 102.858 83.7295 106.745V106.745Z" fill="white"/>
<path d="M98.5226 117.157C98.5317 118.803 97.9962 120.392 97.0216 121.613C96.0573 122.812 94.6217 123.607 93.173 123.278C91.8391 122.975 90.7551 121.654 90.8903 120.057C90.9128 119.711 91.0016 119.374 91.1505 119.071C91.2995 118.768 91.505 118.505 91.7528 118.301C92.0006 118.097 92.2847 117.957 92.5853 117.89C92.8859 117.823 93.1957 117.831 93.4932 117.914C94.7604 118.287 95.2653 120.355 94.2093 121.326C93.956 121.559 93.5919 121.152 93.8477 120.917C94.0054 120.753 94.1244 120.548 94.1938 120.319C94.2632 120.09 94.2808 119.845 94.2449 119.606C94.2091 119.368 94.121 119.143 93.9887 118.953C93.8563 118.763 93.684 118.613 93.4875 118.518C93.2556 118.434 93.0099 118.411 92.7689 118.45C92.5279 118.49 92.298 118.591 92.0965 118.746C91.8951 118.901 91.7274 119.105 91.6061 119.344C91.4849 119.584 91.4133 119.851 91.3967 120.126C91.313 121.473 92.2239 122.487 93.341 122.726C94.5494 122.984 95.7476 122.284 96.5664 121.317C97.5048 120.194 98.0226 118.703 98.0111 117.157C98.0134 117.082 98.0413 117.01 98.089 116.958C98.1367 116.906 98.2005 116.877 98.2669 116.877C98.3333 116.877 98.397 116.906 98.4447 116.958C98.4925 117.01 98.5204 117.082 98.5226 117.157V117.157Z" fill="#2F2E41"/>
<path d="M103.517 120.84C108.557 120.84 112.642 116.212 112.642 110.504C112.642 104.796 108.557 100.169 103.517 100.169C98.4778 100.169 94.3926 104.796 94.3926 110.504C94.3926 116.212 98.4778 120.84 103.517 120.84Z" fill="#52658F"/>
<path d="M103.05 114.914L103.041 114.528C103.675 114.508 104.235 114.463 104.655 114.115C104.774 114.011 104.872 113.879 104.942 113.728C105.012 113.577 105.053 113.411 105.061 113.241C105.068 113.137 105.054 113.032 105.02 112.935C104.986 112.838 104.933 112.751 104.864 112.682C104.706 112.573 104.524 112.514 104.338 112.512C104.152 112.51 103.97 112.565 103.809 112.671L103.527 112.818L104.068 108.339L104.406 108.392L103.946 112.201C104.134 112.122 104.337 112.097 104.536 112.13C104.735 112.162 104.923 112.251 105.084 112.387C105.193 112.494 105.278 112.628 105.333 112.778C105.388 112.929 105.411 113.092 105.402 113.254C105.392 113.483 105.338 113.706 105.243 113.909C105.149 114.112 105.017 114.288 104.856 114.427C104.316 114.874 103.614 114.896 103.05 114.914Z" fill="#2F2E41"/>
<path d="M107.913 108.72H106.076V109.106H107.913V108.72Z" fill="#2F2E41"/>
<path d="M102.117 108.72H100.28V109.106H102.117V108.72Z" fill="#2F2E41"/>
<path d="M97.292 127.161C101.031 128.376 105.011 128.249 108.684 126.798C108.756 126.769 108.828 126.74 108.897 126.711C108.032 125.955 107.053 125.382 106.008 125.019C106.082 124.722 106.08 124.408 106.004 124.112C105.901 123.736 105.693 123.409 105.412 123.178C105.131 122.947 104.791 122.824 104.444 122.829H102.221C101.874 122.824 101.535 122.946 101.255 123.177C100.974 123.407 100.767 123.735 100.664 124.11C100.588 124.407 100.587 124.722 100.661 125.019C99.7402 125.339 98.8701 125.822 98.0831 126.45C97.9245 126.576 97.7711 126.707 97.6228 126.844C97.5103 126.947 97.3995 127.053 97.292 127.161Z" fill="#2F2E41"/>
<path d="M110.665 109.408C110.665 111.15 111.422 112.594 112.406 112.845C112.506 112.871 112.608 112.884 112.711 112.884C113.838 112.884 114.757 111.325 114.757 109.408C114.782 108.419 114.504 107.451 113.969 106.669C113.803 106.441 113.598 106.253 113.367 106.115C113.165 105.995 112.94 105.932 112.711 105.932C112.397 105.936 112.092 106.052 111.84 106.264C111.146 106.82 110.665 108.019 110.665 109.408Z" fill="#3F3D56"/>
<path d="M92.4224 109.408C92.4224 110.906 92.9816 112.185 93.7659 112.673C93.9806 112.81 94.2223 112.882 94.4684 112.884C94.5231 112.884 94.5777 112.88 94.632 112.872C95.6822 112.731 96.5143 111.233 96.5143 109.408C96.5143 107.946 95.9806 106.692 95.227 106.181C94.9991 106.02 94.7366 105.934 94.4684 105.932C94.2397 105.932 94.0146 105.995 93.8119 106.115C93.5803 106.254 93.3752 106.443 93.2084 106.671C92.6752 107.453 92.3975 108.42 92.4224 109.408V109.408Z" fill="#3F3D56"/>
<path d="M93.8933 112.34C93.9339 112.34 93.9739 112.329 94.01 112.308C94.0461 112.287 94.0773 112.257 94.101 112.219C94.1247 112.182 94.1401 112.139 94.1462 112.093C94.1522 112.048 94.1486 112.001 94.1356 111.958C93.6469 110.311 93.4999 108.56 93.706 106.838C93.9121 105.117 94.4659 103.473 95.3242 102.034C96.1825 100.594 97.3223 99.3983 98.6549 98.539C99.9876 97.6797 101.477 97.1801 103.008 97.0789C104.539 96.9777 106.07 97.2778 107.482 97.9557C108.893 98.6336 110.148 99.6712 111.149 100.988C112.149 102.304 112.868 103.864 113.249 105.547C113.631 107.229 113.664 108.988 113.348 110.688C113.334 110.763 113.347 110.841 113.384 110.906C113.421 110.97 113.479 111.015 113.546 111.031C113.612 111.047 113.681 111.032 113.738 110.99C113.794 110.948 113.834 110.883 113.848 110.808C114.181 109.021 114.146 107.171 113.745 105.402C113.344 103.633 112.588 101.993 111.537 100.608C110.485 99.2241 109.166 98.1332 107.681 97.4204C106.197 96.7076 104.588 96.3921 102.978 96.4985C101.368 96.605 99.8022 97.1304 98.4011 98.0339C97 98.9375 95.8017 100.195 94.8994 101.708C93.997 103.222 93.415 104.951 93.1985 106.76C92.982 108.57 93.1368 110.412 93.651 112.143C93.6681 112.2 93.7007 112.25 93.7441 112.286C93.7876 112.321 93.8398 112.34 93.8933 112.34V112.34Z" fill="#3F3D56"/>
<path d="M108.101 103.808C108.252 104.088 108.315 104.418 108.279 104.743C108.243 105.069 108.111 105.371 107.903 105.601C107.408 106.228 106.618 106.267 105.932 106.151C105.163 106.02 104.346 105.612 103.567 105.887C102.903 106.122 102.429 106.804 101.739 106.975C101.127 107.127 100.396 106.926 100.181 106.187C100.078 105.832 100.572 105.68 100.674 106.033C100.813 106.511 101.412 106.502 101.755 106.369C102.306 106.157 102.73 105.641 103.27 105.395C103.915 105.169 104.605 105.171 105.249 105.401C105.86 105.557 106.564 105.788 107.174 105.497C107.625 105.281 107.984 104.602 107.659 104.1C107.465 103.799 107.908 103.51 108.101 103.808V103.808Z" fill="#2F2E41"/>
<path d="M102.483 128.567C100.679 128.569 98.8836 128.283 97.1498 127.718C96.9461 127.653 96.732 127.579 96.517 127.499C95.3089 127.054 94.1429 126.474 93.0359 125.768C92.8283 125.636 92.6199 125.497 92.3995 125.343C91.3051 124.58 90.2808 123.696 89.3418 122.702C89.1869 122.539 89.0334 122.371 88.8833 122.203C85.9302 118.868 84.0123 114.537 83.4176 109.862C82.8229 105.187 83.5836 100.419 85.5853 96.2758C87.5871 92.1321 90.7218 88.8361 94.5186 86.8828C98.3154 84.9296 102.569 84.4246 106.641 85.4437C110.713 86.4628 114.383 88.951 117.1 92.5345C119.816 96.118 121.433 100.603 121.707 105.317C121.981 110.03 120.898 114.716 118.619 118.673C116.341 122.629 112.991 125.641 109.072 127.256C109.002 127.285 108.929 127.314 108.856 127.344C106.808 128.156 104.653 128.57 102.483 128.567V128.567ZM102.483 86.0809C98.8726 86.081 95.3432 87.2948 92.342 89.5683C89.3408 91.8419 87.0027 95.073 85.6236 98.8527C84.2446 102.632 83.8867 106.791 84.5952 110.801C85.3037 114.811 87.0468 118.493 89.6038 121.38C89.7453 121.539 89.8918 121.699 90.04 121.855C90.9293 122.796 91.8994 123.634 92.9359 124.356C93.1446 124.502 93.3411 124.633 93.537 124.757C94.5854 125.426 95.6899 125.976 96.8341 126.398C97.0366 126.473 97.2366 126.542 97.4299 126.603C101.068 127.786 104.941 127.663 108.515 126.251L108.721 126.167C112.752 124.505 116.137 121.288 118.281 117.081C120.426 112.873 121.193 107.944 120.449 103.16C119.704 98.3749 117.495 94.0403 114.21 90.917C110.924 87.7938 106.772 86.0815 102.483 86.0809L102.483 86.0809Z" fill="#CCCCCC"/>
<path d="M176.282 232.904H75.3076C74.0363 232.902 72.8176 232.329 71.9187 231.311C71.0198 230.293 70.5141 228.912 70.5127 227.472V72.2033C70.5141 70.7634 71.0198 69.3829 71.9187 68.3647C72.8176 67.3465 74.0363 66.7737 75.3076 66.7721H176.282C177.553 66.7737 178.772 67.3465 179.671 68.3647C180.57 69.3829 181.075 70.7634 181.077 72.2033V227.472C181.075 228.912 180.57 230.293 179.671 231.311C178.772 232.329 177.553 232.902 176.282 232.904V232.904ZM75.3076 67.4111C74.1859 67.4125 73.1105 67.9179 72.3174 68.8163C71.5242 69.7147 71.0781 70.9328 71.0768 72.2033V227.472C71.0781 228.743 71.5242 229.961 72.3174 230.859C73.1105 231.758 74.1859 232.263 75.3076 232.265H176.282C177.404 232.263 178.479 231.758 179.272 230.859C180.065 229.961 180.511 228.743 180.513 227.472V72.2033C180.511 70.9328 180.065 69.7147 179.272 68.8163C178.479 67.9179 177.404 67.4125 176.282 67.4111H75.3076Z" fill="#3F3D56"/>
<path d="M156.735 107.099H128.163C127.563 107.099 126.988 106.829 126.564 106.349C126.141 105.869 125.902 105.217 125.902 104.538C125.902 103.859 126.141 103.208 126.564 102.728C126.988 102.248 127.563 101.978 128.163 101.978H156.735C157.334 101.978 157.909 102.248 158.333 102.728C158.757 103.208 158.995 103.859 158.995 104.538C158.995 105.217 158.757 105.869 158.333 106.349C157.909 106.829 157.334 107.099 156.735 107.099V107.099Z" fill="#52658F"/>
<path d="M166.059 115.74H128.163C127.563 115.74 126.988 115.47 126.564 114.99C126.141 114.51 125.902 113.859 125.902 113.18C125.902 112.5 126.141 111.849 126.564 111.369C126.988 110.889 127.563 110.619 128.163 110.619H166.059C166.659 110.619 167.234 110.889 167.657 111.369C168.081 111.849 168.319 112.5 168.319 113.18C168.319 113.859 168.081 114.51 167.657 114.99C167.234 115.47 166.659 115.74 166.059 115.74V115.74Z" fill="#52658F"/>
<path d="M156.693 148.883H85.5309C84.9314 148.883 84.3565 148.613 83.9326 148.133C83.5087 147.653 83.2705 147.001 83.2705 146.322C83.2705 145.643 83.5087 144.992 83.9326 144.512C84.3565 144.032 84.9314 143.762 85.5309 143.762H156.693C157.292 143.762 157.867 144.032 158.291 144.512C158.715 144.992 158.953 145.643 158.953 146.322C158.953 147.001 158.715 147.653 158.291 148.133C157.867 148.613 157.292 148.883 156.693 148.883V148.883Z" fill="#CCCCCC"/>
<path d="M166.017 157.524H85.5309C84.9314 157.524 84.3565 157.254 83.9326 156.774C83.5087 156.294 83.2705 155.643 83.2705 154.964C83.2705 154.285 83.5087 153.633 83.9326 153.153C84.3565 152.673 84.9314 152.403 85.5309 152.403H166.017C166.617 152.403 167.191 152.673 167.615 153.153C168.039 153.633 168.277 154.285 168.277 154.964C168.277 155.643 168.039 156.294 167.615 156.774C167.191 157.254 166.617 157.524 166.017 157.524V157.524Z" fill="#CCCCCC"/>
<path d="M156.693 177.385H85.531C84.932 177.384 84.3578 177.114 83.9345 176.634C83.5112 176.154 83.2734 175.503 83.2734 174.825C83.2734 174.146 83.5112 173.495 83.9345 173.015C84.3578 172.535 84.932 172.265 85.531 172.264H156.693C157.293 172.264 157.867 172.534 158.291 173.014C158.715 173.494 158.953 174.146 158.953 174.825C158.953 175.504 158.715 176.155 158.291 176.635C157.867 177.115 157.293 177.385 156.693 177.385V177.385Z" fill="#CCCCCC"/>
<path d="M166.017 186.026H85.531C84.932 186.025 84.3578 185.755 83.9345 185.275C83.5112 184.795 83.2734 184.144 83.2734 183.466C83.2734 182.787 83.5112 182.137 83.9345 181.657C84.3578 181.176 84.932 180.906 85.531 180.906H166.017C166.617 180.906 167.192 181.175 167.615 181.655C168.039 182.136 168.278 182.787 168.278 183.466C168.278 184.145 168.039 184.796 167.615 185.276C167.192 185.757 166.617 186.026 166.017 186.026Z" fill="#CCCCCC"/>
<path d="M156.693 205.887H85.5309C84.9314 205.887 84.3565 205.617 83.9326 205.137C83.5087 204.657 83.2705 204.006 83.2705 203.327C83.2705 202.648 83.5087 201.997 83.9326 201.516C84.3565 201.036 84.9314 200.766 85.5309 200.766H156.693C157.292 200.766 157.867 201.036 158.291 201.516C158.715 201.997 158.953 202.648 158.953 203.327C158.953 204.006 158.715 204.657 158.291 205.137C157.867 205.617 157.292 205.887 156.693 205.887V205.887Z" fill="#CCCCCC"/>
<path d="M166.017 214.528H85.5309C84.9314 214.528 84.3565 214.259 83.9326 213.779C83.5087 213.298 83.2705 212.647 83.2705 211.968C83.2705 211.289 83.5087 210.638 83.9326 210.158C84.3565 209.677 84.9314 209.408 85.5309 209.408H166.017C166.617 209.408 167.191 209.677 167.615 210.158C168.039 210.638 168.277 211.289 168.277 211.968C168.277 212.647 168.039 213.298 167.615 213.779C167.191 214.259 166.617 214.528 166.017 214.528V214.528Z" fill="#CCCCCC"/>
<path d="M175.11 197.548C172.183 197.544 169.285 198.194 166.58 199.46C163.875 200.726 161.417 202.583 159.346 204.926C157.276 207.269 155.633 210.051 154.512 213.114C153.391 216.176 152.814 219.459 152.814 222.774C152.814 226.089 153.391 229.371 154.512 232.434C155.633 235.496 157.275 238.278 159.346 240.621C161.417 242.964 163.875 244.822 166.58 246.088C169.284 247.354 172.183 248.004 175.11 248H175.11C181.01 247.988 186.664 245.325 190.832 240.596C195 235.866 197.341 229.456 197.341 222.774C197.341 216.091 195 209.681 190.832 204.952C186.664 200.222 181.01 197.559 175.11 197.548V197.548Z" fill="#52658F"/>
<path d="M172.997 233.25C172.41 233.251 171.84 233.037 171.371 232.638L171.342 232.614L165.217 227.307C164.645 226.809 164.271 226.074 164.177 225.264C164.082 224.454 164.276 223.635 164.715 222.986C165.154 222.338 165.802 221.913 166.517 221.806C167.233 221.698 167.956 221.917 168.529 222.414L172.496 225.859L181.87 212.007C182.087 211.686 182.358 211.416 182.668 211.214C182.977 211.011 183.319 210.88 183.673 210.827C184.027 210.774 184.387 210.8 184.732 210.905C185.077 211.009 185.401 211.19 185.684 211.436L185.684 211.436L185.685 211.437L185.627 211.528L185.687 211.437C186.259 211.935 186.633 212.669 186.727 213.48C186.821 214.29 186.628 215.109 186.19 215.758L175.164 232.044C174.909 232.42 174.581 232.723 174.205 232.932C173.83 233.14 173.417 233.248 172.999 233.247L172.997 233.25Z" fill="white"/>
</g>
<defs>
<clipPath id="clip0_18_536">
<rect width="242" height="248" fill="white"/>
</clipPath>
</defs>
</svg>
