<svg width="222" height="236" viewBox="0 0 222 236" fill="none" xmlns="http://www.w3.org/2000/svg">
<g clip-path="url(#clip0_18_320)">
<path d="M142.725 174.727C143.223 174.977 143.791 175.076 144.352 175.013C144.913 174.95 145.439 174.727 145.86 174.374C146.281 174.021 146.576 173.556 146.705 173.041C146.834 172.526 146.791 171.986 146.582 171.494C146.638 171.233 146.678 171.045 146.734 170.784C147.812 169.841 149.166 169.222 150.622 169.005C152.078 168.788 153.57 168.983 154.907 169.565C156.244 170.148 157.365 171.091 158.125 172.274C158.886 173.457 159.253 174.826 159.178 176.205C158.836 183.984 159.247 192.377 153.727 198.648C178.919 179.366 190.405 146.518 182.712 116.975C178.937 112.048 177.176 105.502 178.869 99.5709C180.993 101.506 185.134 100.986 184.501 97.6361C184.162 96.312 183.81 94.992 183.471 93.668C197.98 88.3647 201.769 108.573 184.582 116.8C185.976 122.417 186.739 128.155 186.86 133.921C188.8 128.722 192.03 124.029 196.285 120.228C200.404 116.754 205.85 114.711 210.917 112.38C217.083 109.537 223.926 115.174 221.498 121.192C217.394 120.7 214.489 125.296 218.214 127.765C211.672 138.056 199.129 144.597 186.384 144.701C185.095 156.443 181.149 167.794 174.809 177.995C182.951 166.399 198.706 169.738 211.158 169.244C211.984 169.146 212.823 169.276 213.571 169.617C214.32 169.958 214.947 170.496 215.375 171.166C215.802 171.835 216.013 172.606 215.981 173.385C215.949 174.165 215.676 174.918 215.194 175.555C213.556 175.465 211.912 175.527 210.288 175.742C209.523 175.848 208.813 176.173 208.253 176.672C207.694 177.171 207.313 177.82 207.163 178.53C207.013 179.24 207.101 179.975 207.415 180.637C207.729 181.298 208.253 181.852 208.916 182.223C197.994 191.602 181.068 193.619 167.785 187.634C163.857 192.267 159.426 196.506 154.563 200.282L134.814 191.464C134.848 191.227 134.893 190.987 134.933 190.753C136.707 191.676 138.594 192.393 140.553 192.888C138.446 185.365 136.099 180.958 142.724 174.727H142.725Z" fill="#F2F2F2"/>
<path d="M107.828 156.931C107.467 157.338 106.981 157.631 106.437 157.771C105.892 157.911 105.314 157.89 104.782 157.712C104.25 157.534 103.79 157.207 103.463 156.776C103.136 156.344 102.958 155.829 102.954 155.3C102.797 155.077 102.684 154.918 102.527 154.695C101.149 154.203 99.6459 154.108 98.21 154.422C96.7741 154.735 95.4708 155.443 94.4673 156.455C93.4638 157.467 92.8057 158.736 92.5774 160.1C92.3491 161.465 92.561 162.862 93.1859 164.113C96.6343 171.196 99.6345 179.114 107.271 182.972C76.1761 174.015 52.3106 147.652 47.5382 117.573C49.0501 111.676 48.0451 104.992 44.0888 100.097C42.9008 102.64 38.8563 103.621 38.0932 100.295C37.8744 98.9489 37.6682 97.6023 37.4494 96.2561C21.8762 96.471 26.5056 116.525 45.7363 118.072C46.7069 123.767 48.3104 129.35 50.5206 134.733C46.6301 130.603 41.7487 127.398 36.2779 125.381C31.0642 123.619 25.1974 123.652 19.5662 123.284C12.7109 122.829 8.64369 130.467 13.3154 135.183C16.9185 133.277 21.4588 136.507 19.0037 140.11C29.2065 147.329 43.4574 148.955 55.3023 144.548C61.2247 154.968 69.4499 164.086 79.43 171.294C67.2202 163.431 53.9729 172.09 42.2422 176.031C41.4378 176.233 40.7134 176.649 40.1574 177.23C39.6014 177.811 39.2377 178.53 39.1109 179.301C38.984 180.072 39.0994 180.861 39.443 181.571C39.7865 182.282 40.3434 182.883 41.0456 183.302C42.5264 182.64 44.0737 182.117 45.6648 181.742C46.4153 181.57 47.2042 181.62 47.9232 181.884C48.6423 182.149 49.2564 182.616 49.6813 183.22C50.1062 183.824 50.3212 184.537 50.2968 185.26C50.2723 185.984 50.0097 186.682 49.5448 187.26C63.4377 192.087 79.9247 187.974 89.8169 177.738C95.3203 180.642 101.131 183.002 107.155 184.781L121.894 169.637C121.768 169.429 121.63 169.222 121.497 169.02C120.227 170.502 118.768 171.833 117.153 172.983C116.074 165.271 116.474 160.361 107.829 156.931L107.828 156.931Z" fill="#F2F2F2"/>
<path d="M111.621 92.9388C112.183 92.8856 112.714 92.6719 113.142 92.3266C113.57 91.9812 113.875 91.521 114.014 91.0082C114.154 90.4955 114.122 89.9549 113.922 89.4599C113.723 88.9648 113.365 88.5392 112.899 88.2406C112.79 87.9942 112.712 87.8173 112.603 87.5709C112.936 86.2258 113.692 85.0046 114.771 84.064C115.851 83.1235 117.206 82.5063 118.662 82.2917C120.119 82.077 121.61 82.2747 122.946 82.8594C124.282 83.444 125.401 84.389 126.159 85.5732C130.506 92.2086 135.843 98.9621 134.993 107.05C144.428 77.8873 134.411 44.6204 110.44 24.1128C104.373 21.9941 99.0154 17.4802 96.8901 11.6722C99.8055 12.1694 102.934 9.57513 100.414 7.12447C99.3443 6.20263 98.2669 5.2903 97.1971 4.3684C106.085 -7.61157 121.258 7.18559 111.888 22.9917C116.389 26.9262 120.438 31.2907 123.97 36.014C122.486 30.685 122.374 25.1022 123.644 19.7248C124.995 14.6899 128.301 10.1497 131.12 5.56877C134.545 -0.0117495 143.582 1.09428 145.148 7.3579C141.448 9.09307 141.773 14.4246 146.335 14.5294C147.03 26.4888 140.51 38.4695 129.992 45.2116C135.912 55.6326 139.392 67.1157 140.201 78.8957C140.057 65.0175 155.124 59.5607 165.167 52.6478C165.794 52.1353 166.568 51.8051 167.393 51.6973C168.217 51.5896 169.058 51.7089 169.811 52.0409C170.565 52.3729 171.199 52.9031 171.636 53.5668C172.073 54.2305 172.295 54.9991 172.274 55.7789C170.86 56.5596 169.533 57.4699 168.312 58.4963C167.741 58.9835 167.344 59.6242 167.177 60.3307C167.01 61.0372 167.08 61.7749 167.378 62.4426C167.676 63.1103 168.187 63.6754 168.841 64.0604C169.495 64.4453 170.26 64.6314 171.032 64.593C167.547 78.0836 154.697 88.5965 140.107 90.5654C139.605 96.4633 138.45 102.296 136.66 107.97L115.017 110.964C114.904 110.75 114.798 110.527 114.692 110.311C116.714 110.152 118.708 109.762 120.628 109.149C114.402 104.004 109.83 101.572 111.621 92.9392L111.621 92.9388Z" fill="#F2F2F2"/>
<path d="M133.389 86.4386C123.536 86.4386 118.191 85.3107 116.325 82.9033C114.678 80.7791 115.782 77.9764 117.061 74.7313C117.979 72.3987 119.021 69.7551 119.021 67.1386C119.021 54.4126 125.91 47.9598 139.496 47.9598C146.256 47.9598 153.514 51.3234 158.911 56.9574C163.818 62.0793 166.263 68.2094 165.618 73.7757C165.089 78.3407 162.821 81.3427 158.479 83.2238L158.225 83.3338L158.153 83.0807C157.778 81.7705 157.144 80.538 156.282 79.4474C156.199 81.1593 155.738 82.8365 154.929 84.3736L154.883 84.4613L154.783 84.4882C149.869 85.7992 144.037 86.1544 139.505 86.3172C137.299 86.3977 135.261 86.4382 133.389 86.4386Z" fill="#2F2E41"/>
<path d="M136.075 104.17C135.697 103.13 135.06 102.189 134.217 101.426C133.373 100.663 132.348 100.1 131.225 99.7821C130.103 99.4646 128.916 99.4025 127.762 99.6008C126.609 99.7991 125.523 100.252 124.594 100.922L92.1834 119.073L82.0417 95.8938C82.8984 94.7166 83.3351 93.3154 83.2891 91.8913C83.2431 90.4671 82.7168 89.0933 81.7857 87.9666C80.8545 86.84 79.5664 86.0185 78.106 85.6201C76.6457 85.2216 75.0881 85.2665 73.6567 85.7485C72.2252 86.2304 70.9935 87.1246 70.1382 88.3028C69.2829 89.481 68.8479 90.8826 68.8956 92.3067C68.9433 93.7308 69.4713 95.1041 70.4038 96.2297C71.3363 97.3554 72.6254 98.1755 74.0863 98.5724C74.7113 105.256 78.1852 135.132 90.2703 134.046C100.428 133.133 125.655 117.396 133.49 111.94C134.744 111.068 135.669 109.846 136.134 108.449C136.598 107.053 136.578 105.554 136.075 104.17Z" fill="#FFB6B6"/>
<path d="M160.498 236H132.29L127.559 214.092L126.025 236H99.8213C99.8314 218.796 100.788 201.603 102.688 184.491L103.013 183.455L103.526 181.797L103.85 180.756L109.273 163.315L109.701 161.93H142.353C144.232 163.584 145.965 165.376 147.536 167.291C148.067 167.926 148.623 168.614 149.192 169.355C149.588 169.88 149.997 170.431 150.407 171.008C154.045 176.082 156.765 181.683 158.456 187.586V187.59C158.743 188.6 158.997 189.633 159.218 190.69V190.694C159.416 191.633 159.59 192.585 159.726 193.56C159.83 194.27 159.919 194.988 159.985 195.716C160.378 199.746 160.24 203.806 159.576 207.805L160.498 236Z" fill="#2F2E41"/>
<path d="M10.936 35.6772C12.7679 35.013 13.8531 33.5068 13.3598 32.3131C12.8665 31.1194 10.9815 30.6902 9.14953 31.3544C7.31759 32.0187 6.23243 33.5248 6.72575 34.7186C7.21907 35.9123 9.10405 36.3415 10.936 35.6772Z" fill="#E6E6E6"/>
<path d="M34.0014 32.9057C35.8334 32.2415 36.9185 30.7353 36.4252 29.5416C35.9319 28.3479 34.0469 27.9187 32.215 28.5829C30.383 29.2472 29.2979 30.7533 29.7912 31.947C30.2845 33.1407 32.1695 33.57 34.0014 32.9057Z" fill="#3F3D56"/>
<path d="M8.93552 54.1101C10.7675 53.4458 11.8526 51.9397 11.3593 50.746C10.866 49.5523 8.981 49.1231 7.14906 49.7873C5.31712 50.4515 4.23194 51.9577 4.72526 53.1514C5.21858 54.3451 7.10358 54.7743 8.93552 54.1101Z" fill="#FF6584"/>
<path d="M2.26283 62.2409C3.10327 62.0546 3.55278 60.9862 3.26682 59.8545C2.98087 58.7229 2.06774 57.9566 1.22731 58.1429C0.386871 58.3292 -0.0626221 59.3977 0.223331 60.5293C0.509284 61.6609 1.4224 62.4272 2.26283 62.2409Z" fill="#E6E6E6"/>
<path d="M2.12563 76.0067C2.96606 75.8203 3.41555 74.7519 3.1296 73.6203C2.84365 72.4886 1.93053 71.7223 1.0901 71.9087C0.249664 72.095 -0.199829 73.1634 0.0861238 74.295C0.372077 75.4267 1.28519 76.193 2.12563 76.0067Z" fill="#3F3D56"/>
<path d="M22.3698 47.4946C23.2102 47.3082 23.6597 46.2398 23.3737 45.1082C23.0878 43.9766 22.1747 43.2102 21.3342 43.3966C20.4938 43.5829 20.0443 44.6513 20.3303 45.7829C20.6162 46.9146 21.5293 47.6809 22.3698 47.4946Z" fill="#E6E6E6"/>
<path d="M10.2218 44.7314C11.0623 44.545 11.5117 43.4766 11.2258 42.345C10.9398 41.2134 10.0267 40.447 9.18629 40.6334C8.34586 40.8197 7.89636 41.8881 8.18232 43.0197C8.46827 44.1514 9.38138 44.9177 10.2218 44.7314Z" fill="#FF6584"/>
<path d="M23.0978 32.0554C23.9382 31.8691 24.3877 30.8006 24.1018 29.669C23.8158 28.5374 22.9027 27.7711 22.0623 27.9574C21.2218 28.1437 20.7723 29.2121 21.0583 30.3438C21.3442 31.4754 22.2574 32.2417 23.0978 32.0554Z" fill="#3F3D56"/>
<path d="M29.0863 127.331C29.972 126.356 29.4775 124.599 27.9816 123.406C26.4857 122.214 24.555 122.037 23.6693 123.012C22.7835 123.987 23.2781 125.744 24.7739 126.936C26.2698 128.129 28.2005 128.306 29.0863 127.331Z" fill="#E6E6E6"/>
<path d="M15.5013 109.652C16.3871 108.677 15.8925 106.92 14.3966 105.727C12.9008 104.535 10.9701 104.358 10.0843 105.333C9.19853 106.307 9.69311 108.064 11.189 109.257C12.6848 110.45 14.6155 110.626 15.5013 109.652Z" fill="#3F3D56"/>
<path d="M47.3436 120.202C48.2294 119.227 47.7348 117.47 46.2389 116.277C44.743 115.085 42.8123 114.908 41.9266 115.883C41.0408 116.858 41.5354 118.615 43.0313 119.807C44.5271 121 46.4578 121.177 47.3436 120.202Z" fill="#FF6584"/>
<path d="M56.4135 120.397C57.3397 119.623 57.6244 118.506 57.0493 117.902C56.4742 117.299 55.2571 117.437 54.3309 118.211C53.4047 118.986 53.12 120.103 53.6951 120.706C54.2702 121.31 55.4873 121.171 56.4135 120.397Z" fill="#E6E6E6"/>
<path d="M69.4023 113.956C70.3285 113.181 70.6132 112.064 70.0381 111.461C69.463 110.857 68.2459 110.996 67.3197 111.77C66.3934 112.544 66.1088 113.661 66.6839 114.265C67.259 114.868 68.476 114.73 69.4023 113.956Z" fill="#3F3D56"/>
<path d="M32.9955 110.857C33.9218 110.082 34.2064 108.965 33.6313 108.362C33.0562 107.758 31.8392 107.897 30.9129 108.671C29.9867 109.446 29.702 110.563 30.2771 111.166C30.8522 111.77 32.0693 111.631 32.9955 110.857Z" fill="#E6E6E6"/>
<path d="M36.186 122.179C37.1122 121.404 37.3968 120.287 36.8217 119.684C36.2466 119.08 35.0296 119.219 34.1034 119.993C33.1771 120.767 32.8925 121.884 33.4676 122.488C34.0427 123.092 35.2597 122.953 36.186 122.179Z" fill="#FF6584"/>
<path d="M18.1547 117.608C19.0809 116.834 19.3656 115.717 18.7905 115.114C18.2154 114.51 16.9983 114.648 16.0721 115.423C15.1459 116.197 14.8612 117.314 15.4363 117.918C16.0114 118.521 17.2285 118.383 18.1547 117.608Z" fill="#3F3D56"/>
<path d="M120.347 13.9423C121.573 13.3774 121.865 11.5809 120.998 9.92978C120.131 8.27863 118.434 7.39806 117.208 7.96295C115.981 8.52785 115.69 10.3243 116.557 11.9755C117.424 13.6266 119.121 14.5072 120.347 13.9423Z" fill="#E6E6E6"/>
<path d="M125.316 35.2216C126.542 34.6567 126.833 32.8602 125.966 31.2091C125.1 29.5579 123.403 28.6774 122.176 29.2422C120.95 29.8071 120.659 31.6036 121.526 33.2547C122.393 34.9059 124.09 35.7865 125.316 35.2216Z" fill="#3F3D56"/>
<path d="M100.569 13.6908C101.795 13.1259 102.086 11.3294 101.219 9.67829C100.352 8.02714 98.6556 7.14655 97.4294 7.71144C96.2031 8.27634 95.9118 10.0728 96.7787 11.724C97.6456 13.3751 99.3425 14.2557 100.569 13.6908Z" fill="#FF6584"/>
<path d="M90.1727 6.93788C91.3511 6.57191 92.086 5.65276 91.8143 4.88489C91.5425 4.11702 90.3668 3.79121 89.1884 4.15718C88.01 4.52315 87.275 5.44231 87.5468 6.21018C87.8186 6.97804 88.9943 7.30384 90.1727 6.93788Z" fill="#E6E6E6"/>
<path d="M75.5213 8.01597C76.6997 7.65 77.4347 6.73085 77.1629 5.96298C76.8911 5.19511 75.7154 4.86931 74.537 5.23528C73.3586 5.60125 72.6237 6.5204 72.8955 7.28826C73.1672 8.05613 74.3429 8.38194 75.5213 8.01597Z" fill="#3F3D56"/>
<path d="M107.617 24.4071C108.795 24.0412 109.53 23.122 109.259 22.3542C108.987 21.5863 107.811 21.2605 106.633 21.6264C105.454 21.9924 104.719 22.9116 104.991 23.6794C105.263 24.4473 106.439 24.7731 107.617 24.4071Z" fill="#E6E6E6"/>
<path d="M109.492 12.8299C110.67 12.4639 111.405 11.5447 111.133 10.7769C110.861 10.009 109.686 9.68321 108.507 10.0492C107.329 10.4151 106.594 11.3343 106.866 12.1022C107.137 12.87 108.313 13.1958 109.492 12.8299Z" fill="#FF6584"/>
<path d="M124.1 23.7336C125.279 23.3677 126.014 22.4485 125.742 21.6807C125.47 20.9128 124.295 20.587 123.116 20.953C121.938 21.3189 121.203 22.2381 121.475 23.0059C121.746 23.7738 122.922 24.0996 124.1 23.7336Z" fill="#3F3D56"/>
<path d="M128.624 89.9814L144.164 89.2316L151.382 99.9149C151.382 99.9149 164.963 102.042 164.022 117.032C163.081 132.022 147.498 145.176 147.498 145.176L148.164 152.983L147.007 156.079L147.155 157.818L148.734 159.659L148.896 161.563L147.498 164.576L149.399 167.46L109.422 163.832L107.96 158.844L110.092 156.165L108.901 152.672L110.692 149.311L111.626 138.637C111.626 138.637 101.41 124.26 113.137 113.432L117.844 105.937L123.111 99.9183L128.624 89.9814Z" fill="#52658F"/>
<path d="M136.35 86.9648C145.444 86.9648 152.817 80.0592 152.817 71.5406C152.817 63.022 145.444 56.1163 136.35 56.1163C127.255 56.1163 119.883 63.022 119.883 71.5406C119.883 80.0592 127.255 86.9648 136.35 86.9648Z" fill="#FFB6B6"/>
<path d="M134.145 70.6057C132.726 70.6057 131.308 70.5682 129.89 70.4933L129.637 70.48L129.67 70.2444C129.879 68.7722 129.762 67.2754 129.325 65.8476C128.584 67.4733 127.481 68.9324 126.09 70.1273L126.011 70.1947L125.906 70.1839C122.056 69.7895 118.241 69.1379 114.491 68.234L114.347 68.1995L114.319 68.0635C114.039 66.775 113.894 65.4641 113.886 64.1492C113.886 60.0419 115.475 56.585 118.362 54.4152C121.504 52.0534 126.009 51.327 131.05 52.3688H147.168C148.941 52.3706 150.639 53.0308 151.893 54.2045C153.146 55.3783 153.85 56.9696 153.852 58.6295V68.1907L153.677 68.2337C147.301 69.8032 140.737 70.6003 134.145 70.6057Z" fill="#2F2E41"/>
<path d="M21.7841 53.4488C21.0625 53.696 20.4751 54.2012 20.1507 54.8536C19.8263 55.506 19.7914 56.2523 20.0537 56.9287L37.4426 101.621C37.7065 102.297 38.2459 102.848 38.9423 103.151C39.6388 103.455 40.4355 103.488 41.1577 103.242L108.647 80.2035C109.369 79.9563 109.956 79.4511 110.281 78.7987C110.605 78.1463 110.64 77.4001 110.378 76.7236L92.9887 32.031C92.7248 31.3551 92.1854 30.8048 91.489 30.5009C90.7925 30.197 89.9958 30.1643 89.2736 30.41L21.7841 53.4488Z" fill="#CCCCCC"/>
<path d="M83.529 86.3142L42.2184 100.416C41.4412 100.681 40.5837 100.646 39.8341 100.318C39.0845 99.9914 38.504 99.3992 38.22 98.6717L22.4483 58.1359C22.166 57.4078 22.2036 56.6046 22.5527 55.9025C22.9019 55.2003 23.5341 54.6566 24.3107 54.3905L87.9866 32.6536C88.7639 32.3892 89.6214 32.4243 90.371 32.7514C91.1206 33.0785 91.7011 33.6707 91.9851 34.3982L99.6058 53.9847C102.042 60.2692 101.718 67.2024 98.7042 73.2632C95.6903 79.3241 90.2327 84.0176 83.529 86.3142V86.3142Z" fill="white"/>
<path d="M53.8037 57.0304L43.9869 60.3816C43.8638 60.4236 43.733 60.4425 43.6021 60.4372C43.4712 60.4319 43.3427 60.4025 43.2239 60.3507C43.1052 60.2988 42.9984 60.2256 42.9099 60.1352C42.8213 60.0447 42.7526 59.9388 42.7078 59.8235C42.6629 59.7082 42.6427 59.5857 42.6484 59.4631C42.6541 59.3405 42.6854 59.2201 42.7408 59.1088C42.7961 58.9976 42.8743 58.8976 42.9708 58.8147C43.0674 58.7317 43.1805 58.6674 43.3036 58.6254L53.1204 55.2742C53.369 55.1893 53.6434 55.2005 53.8833 55.3051C54.1232 55.4098 54.3089 55.5994 54.3995 55.8323C54.4901 56.0652 54.4782 56.3222 54.3665 56.5469C54.2548 56.7716 54.0523 56.9456 53.8037 57.0304H53.8037Z" fill="#52658F"/>
<path d="M77.2073 53.1097L45.3845 63.9731C45.2614 64.0153 45.1306 64.0343 44.9995 64.0291C44.8685 64.0239 44.7399 63.9946 44.621 63.9428C44.5021 63.891 44.3952 63.8177 44.3066 63.7272C44.2179 63.6367 44.1492 63.5308 44.1043 63.4154C44.0594 63.3 44.0392 63.1774 44.0449 63.0547C44.0506 62.932 44.0821 62.8115 44.1375 62.7002C44.193 62.5889 44.2713 62.4889 44.368 62.406C44.4647 62.323 44.578 62.2588 44.7012 62.2168L76.524 51.3535C76.6471 51.3115 76.7779 51.2926 76.9088 51.2979C77.0397 51.3032 77.1682 51.3326 77.287 51.3844C77.4057 51.4363 77.5125 51.5095 77.601 51.5999C77.6896 51.6904 77.7583 51.7963 77.8031 51.9116C77.848 52.0269 77.8682 52.1494 77.8625 52.272C77.8569 52.3946 77.8255 52.515 77.7702 52.6263C77.7148 52.7375 77.6366 52.8375 77.5401 52.9204C77.4435 53.0034 77.3304 53.0677 77.2073 53.1097V53.1097Z" fill="#52658F"/>
<path d="M78.8112 57.2323L46.9884 68.0956C46.8653 68.1376 46.7345 68.1565 46.6036 68.1512C46.4727 68.1459 46.3442 68.1165 46.2254 68.0647C46.1066 68.0129 45.9999 67.9396 45.9113 67.8492C45.8228 67.7587 45.7541 67.6528 45.7092 67.5375C45.6644 67.4222 45.6442 67.2997 45.6499 67.1771C45.6555 67.0545 45.6869 66.9341 45.7422 66.8229C45.7976 66.7116 45.8757 66.6116 45.9723 66.5287C46.0689 66.4457 46.1819 66.3814 46.305 66.3394L78.1278 55.4761C78.3764 55.3915 78.6506 55.4029 78.8902 55.5076C79.1298 55.6123 79.3153 55.8018 79.4058 56.0345C79.4964 56.2672 79.4846 56.5241 79.3731 56.7487C79.2616 56.9732 79.0595 57.1472 78.8112 57.2323V57.2323Z" fill="#52658F"/>
<path d="M80.4148 61.3548L48.5921 72.2181C48.4689 72.2603 48.3381 72.2794 48.2071 72.2742C48.076 72.269 47.9474 72.2396 47.8285 72.1879C47.7096 72.1361 47.6027 72.0628 47.5141 71.9723C47.4254 71.8818 47.3567 71.7758 47.3118 71.6604C47.2669 71.545 47.2467 71.4225 47.2524 71.2997C47.2581 71.177 47.2896 71.0566 47.345 70.9453C47.4005 70.8339 47.4788 70.734 47.5755 70.651C47.6722 70.5681 47.7855 70.5038 47.9087 70.4619L79.7315 59.5986C79.8546 59.5566 79.9854 59.5377 80.1163 59.543C80.2472 59.5483 80.3757 59.5777 80.4945 59.6295C80.6133 59.6813 80.72 59.7545 80.8085 59.845C80.8971 59.9354 80.9658 60.0414 81.0107 60.1567C81.0555 60.272 81.0757 60.3944 81.07 60.5171C81.0644 60.6397 81.033 60.7601 80.9777 60.8713C80.9223 60.9826 80.8442 61.0825 80.7476 61.1655C80.651 61.2484 80.538 61.3128 80.4148 61.3548V61.3548Z" fill="#52658F"/>
<path d="M82.0192 65.4773L50.1964 76.3406C49.9477 76.4255 49.6733 76.4144 49.4334 76.3097C49.1935 76.2051 49.0079 76.0154 48.9172 75.7826C48.8266 75.5497 48.8385 75.2926 48.9502 75.0679C49.062 74.8432 49.2644 74.6693 49.5131 74.5844L81.3359 63.7211C81.459 63.6791 81.5897 63.6602 81.7206 63.6655C81.8515 63.6708 81.98 63.7002 82.0988 63.752C82.2176 63.8038 82.3243 63.8771 82.4129 63.9675C82.5014 64.058 82.5701 64.1639 82.615 64.2792C82.6599 64.3945 82.68 64.517 82.6744 64.6396C82.6687 64.7622 82.6373 64.8826 82.582 64.9939C82.5267 65.1051 82.4485 65.2051 82.3519 65.288C82.2554 65.371 82.1423 65.4353 82.0192 65.4773H82.0192Z" fill="#52658F"/>
<path d="M182.993 76.9265L165.569 115.981C164.826 117.633 163.419 118.946 161.651 119.635C159.884 120.324 157.898 120.335 156.122 119.665C155.204 119.318 154.37 118.8 153.672 118.142C152.974 117.483 152.427 116.699 152.063 115.836C151.7 114.973 151.528 114.05 151.557 113.122C151.587 112.195 151.818 111.283 152.237 110.442L171.663 70.3942L182.372 45.5935C181.447 44.729 180.828 43.6186 180.6 42.4132C180.371 41.2078 180.545 39.9658 181.096 38.8559C181.648 37.7461 182.551 36.8222 183.683 36.2099C184.814 35.5975 186.12 35.3263 187.422 35.4331C188.724 35.5399 189.959 36.0195 190.96 36.8069C191.961 37.5942 192.679 38.651 193.016 39.8338C193.353 41.0165 193.294 42.2679 192.845 43.4178C192.397 44.5677 191.581 45.5604 190.51 46.2611L182.993 76.9265Z" fill="#FFB6B6"/>
</g>
<defs>
<clipPath id="clip0_18_320">
<rect width="222" height="236" fill="white"/>
</clipPath>
</defs>
</svg>
