<svg width="314" height="280" viewBox="0 0 314 280" fill="none" xmlns="http://www.w3.org/2000/svg">
<g clip-path="url(#clip0_18_515)">
<path d="M197.983 38.148C195.017 44.5881 189.559 49.3825 183.842 53.285C177.778 57.41 171.258 60.7489 164.427 63.2285C163.487 63.5734 162.537 63.9036 161.587 64.214H120.932C120.668 63.8986 120.415 63.5685 120.17 63.2285C117.618 59.6906 116.249 55.2116 116.762 50.8213C117.434 45.0661 121.604 39.774 127.015 38.5471C132.426 37.3251 138.594 40.7102 140.235 46.2486C141.142 35.571 142.186 24.4449 147.601 15.3489C152.505 7.11518 161.004 1.222 170.209 0.167534C175.623 -0.423473 181.086 0.62476 185.949 3.18801C186.395 3.42452 186.837 3.67089 187.27 3.92712C190.188 5.66155 192.763 7.96453 194.857 10.7122C200.597 18.33 202.003 29.4018 197.983 38.148Z" fill="#F2F2F2"/>
<path d="M187.27 3.92716C187.281 4.05649 187.26 4.1867 187.209 4.30504C187.158 4.42338 187.079 4.52579 186.979 4.60225C168.566 20.318 154.003 40.4184 144.504 63.2286C144.363 63.5538 144.226 63.8839 144.095 64.214H142.224C142.355 63.8839 142.487 63.5538 142.623 63.2286C144.405 58.8727 146.375 54.6056 148.533 50.4271C153.203 41.4056 158.697 32.8806 164.939 24.9721C171.181 17.054 178.152 9.80028 185.751 3.31619C185.812 3.26475 185.878 3.2217 185.949 3.18808C186.081 3.12843 186.224 3.10072 186.368 3.10702C186.512 3.11331 186.652 3.15345 186.779 3.22445C186.906 3.29545 187.016 3.39548 187.101 3.51713C187.186 3.63879 187.244 3.77893 187.27 3.92716V3.92716Z" fill="white"/>
<path d="M188.046 63.2285H8.93217C7.38939 63.2267 5.87278 63.6461 4.53174 64.4456C4.21053 64.6367 3.90123 64.849 3.60574 65.0812C2.48683 65.9507 1.57785 67.0828 0.951678 68.3869C0.325508 69.691 -0.00042839 71.1307 4.22571e-07 72.5906V170.153C0.00210541 172.636 0.943846 175.016 2.6185 176.771C4.29315 178.526 6.56386 179.513 8.93217 179.515H188.046C190.414 179.513 192.685 178.526 194.359 176.771C196.034 175.016 196.976 172.636 196.978 170.153V72.5906C196.976 70.1083 196.034 67.7283 194.359 65.9731C192.685 64.2178 190.414 63.2308 188.046 63.2285V63.2285ZM196.038 170.153C196.035 172.374 195.192 174.503 193.694 176.073C192.195 177.643 190.164 178.527 188.046 178.53H8.93217C6.8135 178.527 4.78246 177.643 3.28433 176.073C1.7862 174.503 0.943227 172.374 0.940229 170.153V72.5906C0.946904 70.8203 1.48554 69.0973 2.47965 67.6661C3.47375 66.2349 4.87279 65.1684 6.47807 64.6181C6.54396 64.5983 6.605 64.5737 6.67089 64.554C7.40523 64.3277 8.16677 64.2132 8.93217 64.214H188.046C190.164 64.2172 192.195 65.1007 193.694 66.671C195.192 68.2412 196.035 70.37 196.038 72.5906V170.153Z" fill="white"/>
<path d="M252.554 190.49C253.173 190.067 253.696 189.508 254.085 188.851C254.475 188.193 254.723 187.455 254.811 186.686C254.899 185.918 254.825 185.139 254.595 184.404C254.365 183.668 253.983 182.995 253.478 182.431L256.285 147.343L248.244 148.27L246.041 182.421C245.193 183.373 244.708 184.619 244.678 185.922C244.648 187.224 245.075 188.493 245.878 189.488C246.681 190.482 247.804 191.134 249.035 191.318C250.265 191.503 251.517 191.208 252.554 190.49V190.49Z" fill="#FFB8B8"/>
<path d="M223.933 274.182L218.169 274.182L215.428 250.881L223.934 250.881L223.933 274.182Z" fill="#FFB8B8"/>
<path d="M214.052 272.456H225.168V279.791H207.054C207.054 278.828 207.235 277.874 207.586 276.984C207.938 276.094 208.454 275.285 209.104 274.604C209.753 273.923 210.525 273.383 211.374 273.014C212.223 272.645 213.133 272.456 214.052 272.456Z" fill="white"/>
<path d="M264.832 274.182L259.069 274.182L256.327 250.881L264.833 250.881L264.832 274.182Z" fill="#FFB8B8"/>
<path d="M254.953 272.456H266.068V279.791H247.954C247.954 277.846 248.691 275.98 250.004 274.604C251.316 273.229 253.096 272.456 254.953 272.456V272.456Z" fill="#2F2E41"/>
<path d="M224.031 259.751C223.968 259.751 223.905 259.748 223.842 259.743L215.685 259.058C215.361 259.031 215.046 258.934 214.76 258.773C214.474 258.612 214.223 258.391 214.023 258.123C213.822 257.856 213.677 257.547 213.596 257.218C213.515 256.889 213.5 256.545 213.552 256.209L225.919 176.031L226.748 164.722C226.785 164.193 226.984 163.691 227.316 163.291C227.648 162.891 228.094 162.615 228.589 162.504L241.029 159.652C241.486 159.545 241.964 159.584 242.399 159.765C242.835 159.946 243.208 160.26 243.471 160.667L246.505 165.314C247.696 167.12 248.99 168.85 250.381 170.492C252.533 173.061 256.192 178.765 256.52 188.1C256.608 191.167 256.912 194.223 257.429 197.242L267.444 253.79C267.495 254.121 267.481 254.46 267.402 254.786C267.323 255.111 267.181 255.416 266.986 255.682C266.79 255.948 266.545 256.17 266.265 256.333C265.985 256.496 265.676 256.597 265.357 256.63L257.625 257.244C257.072 257.301 256.517 257.15 256.06 256.818C255.604 256.486 255.275 255.994 255.132 255.431L241.416 201.968C241.389 201.863 241.33 201.771 241.248 201.705C241.165 201.639 241.065 201.603 240.961 201.603C240.858 201.604 240.757 201.64 240.675 201.706C240.593 201.772 240.534 201.865 240.508 201.97L226.301 257.921C226.167 258.445 225.873 258.909 225.462 259.24C225.052 259.57 224.548 259.75 224.031 259.751Z" fill="#2F2E41"/>
<path d="M245.722 123.315C252.099 123.315 257.269 117.897 257.269 111.213C257.269 104.529 252.099 99.1109 245.722 99.1109C239.345 99.1109 234.176 104.529 234.176 111.213C234.176 117.897 239.345 123.315 245.722 123.315Z" fill="#FFB8B8"/>
<path d="M226.151 166.541L225.912 149.258C225.033 138.205 229.703 132.401 233.776 129.482C234.827 128.739 236.01 128.227 237.255 127.977C238.5 127.727 239.78 127.745 241.018 128.029L250.105 130.088C251.37 130.377 252.567 130.932 253.621 131.72C254.676 132.507 255.568 133.51 256.242 134.669C256.887 135.763 257.311 136.983 257.486 138.255C257.662 139.528 257.586 140.824 257.263 142.064C256.632 144.385 255.232 146.395 253.315 147.732C245.507 153.509 244.956 163.213 244.952 163.311L244.942 163.511L226.151 166.541Z" fill="#52658F"/>
<path d="M254.59 153.69H246.598C246.037 153.689 245.499 153.455 245.103 153.04C244.706 152.624 244.483 152.06 244.482 151.472V136.937C244.482 135.238 245.126 133.608 246.272 132.407C247.419 131.206 248.973 130.531 250.594 130.531C252.215 130.531 253.769 131.206 254.915 132.407C256.062 133.608 256.705 135.238 256.705 136.937V151.472C256.705 152.06 256.482 152.624 256.085 153.04C255.688 153.455 255.151 153.689 254.59 153.69V153.69Z" fill="#52658F"/>
<path d="M200.932 156.436C200.461 157.025 199.877 157.503 199.217 157.838C198.557 158.173 197.837 158.357 197.105 158.38C196.372 158.402 195.643 158.261 194.966 157.967C194.289 157.672 193.679 157.23 193.177 156.671C188.623 151.665 196.067 144.149 200.638 149.165C200.799 149.338 200.949 149.523 201.086 149.717L224.134 149.117L226.885 143.843L235.34 147.284C233.717 149.922 231.853 160.277 227.608 159.773C227.051 159.789 201.501 156.478 200.932 156.436Z" fill="#FFB8B8"/>
<path d="M231.765 152.445L225.322 147.489C224.87 147.141 224.569 146.619 224.484 146.038C224.398 145.457 224.537 144.864 224.868 144.39L233.073 132.671C233.548 131.993 234.146 131.419 234.832 130.983C235.518 130.547 236.28 130.257 237.073 130.13C237.866 130.002 238.676 130.039 239.455 130.24C240.235 130.44 240.969 130.799 241.616 131.297C242.263 131.795 242.81 132.421 243.226 133.14C243.642 133.86 243.919 134.658 244.041 135.489C244.163 136.321 244.127 137.169 243.936 137.986C243.745 138.803 243.402 139.573 242.927 140.251L234.722 151.97C234.39 152.443 233.892 152.759 233.337 152.848C232.783 152.938 232.218 152.793 231.765 152.445V152.445Z" fill="#52658F"/>
<path d="M248.035 117.504C248.407 116.689 248.537 115.775 248.406 114.882C248.275 113.989 247.89 113.158 247.301 112.498C245.129 110.202 241.735 111.733 238.8 111.509C233.91 111.134 230.58 105.023 232.039 100.117C233.499 95.2109 238.688 92.1667 243.581 92.4895C248.474 92.8123 252.904 95.9848 255.853 100.09C257.872 96.6848 262.831 96.2876 266.032 98.4827C269.233 100.678 270.889 104.689 271.573 108.634C272.258 112.578 272.146 116.632 272.722 120.595C274.119 130.202 280.035 139.248 288.595 142.983C297.155 146.717 308.108 144.317 313.708 136.572C314.797 145.958 312.887 155.458 308.276 163.585C303.666 171.711 296.615 178.007 288.227 181.487C283.589 183.412 278.466 184.433 273.583 183.364C265.699 181.637 259.567 174.57 256.895 166.607C254.222 158.643 254.542 149.905 255.84 141.574C256.64 136.443 257.525 130.365 253.954 126.756C252.952 125.882 251.773 125.258 250.506 124.934C249.834 124.722 249.217 124.353 248.703 123.853C248.188 123.354 247.788 122.739 247.535 122.053C247.282 121.368 247.181 120.631 247.24 119.898C247.3 119.166 247.518 118.457 247.879 117.827C247.936 117.719 247.989 117.612 248.035 117.504Z" fill="#2F2E41"/>
<path d="M289.486 280H182.3C182.176 280 182.056 279.948 181.968 279.856C181.88 279.763 181.83 279.638 181.83 279.507C181.83 279.377 181.88 279.251 181.968 279.159C182.056 279.066 182.176 279.014 182.3 279.014H289.486C289.611 279.014 289.73 279.066 289.819 279.159C289.907 279.251 289.956 279.377 289.956 279.507C289.956 279.638 289.907 279.763 289.819 279.856C289.73 279.948 289.611 280 289.486 280Z" fill="#3F3D56"/>
<path d="M98.2927 121.33C97.5793 121.33 96.8776 121.141 96.253 120.779L2.67992 66.7982C2.5707 66.7352 2.48984 66.6292 2.45512 66.5037C2.4204 66.3782 2.43467 66.2434 2.49479 66.129C2.55491 66.0145 2.65596 65.9297 2.7757 65.8933C2.89544 65.8569 3.02406 65.8719 3.13328 65.9349L96.7063 119.916C97.1835 120.192 97.7189 120.339 98.264 120.344C98.809 120.35 99.3468 120.212 99.8285 119.945L194.942 67.3549C194.996 67.3246 195.056 67.3058 195.118 67.2997C195.179 67.2936 195.241 67.3003 195.3 67.3193C195.36 67.3384 195.414 67.3695 195.462 67.4109C195.51 67.4522 195.549 67.503 195.578 67.5603C195.607 67.6176 195.624 67.6802 195.63 67.7447C195.636 67.8093 195.629 67.8743 195.611 67.9362C195.593 67.998 195.563 68.0555 195.523 68.1053C195.484 68.1551 195.435 68.1962 195.381 68.2263L100.267 120.816C99.6588 121.154 98.981 121.33 98.2927 121.33V121.33Z" fill="white"/>
<path d="M29.8831 154.878H16.7199C15.7224 154.878 14.7659 154.463 14.0605 153.724C13.3552 152.984 12.959 151.982 12.959 150.936C12.959 149.891 13.3552 148.888 14.0605 148.149C14.7659 147.41 15.7224 146.994 16.7199 146.994H29.8831C30.8806 146.994 31.8372 147.41 32.5425 148.149C33.2478 148.888 33.644 149.891 33.644 150.936C33.644 151.982 33.2478 152.984 32.5425 153.724C31.8372 154.463 30.8806 154.878 29.8831 154.878Z" fill="#3F3D56"/>
<path d="M45.3969 168.182H16.7199C15.7224 168.182 14.7659 167.767 14.0605 167.028C13.3552 166.288 12.959 165.286 12.959 164.24C12.959 163.195 13.3552 162.192 14.0605 161.453C14.7659 160.714 15.7224 160.298 16.7199 160.298H45.3969C46.3943 160.298 47.3509 160.714 48.0562 161.453C48.7615 162.192 49.1578 163.195 49.1578 164.24C49.1578 165.286 48.7615 166.288 48.0562 167.028C47.3509 167.767 46.3943 168.182 45.3969 168.182Z" fill="#3F3D56"/>
<path d="M98.2556 137.14C106.564 137.14 113.299 130.08 113.299 121.372C113.299 112.664 106.564 105.604 98.2556 105.604C89.9472 105.604 83.2119 112.664 83.2119 121.372C83.2119 130.08 89.9472 137.14 98.2556 137.14Z" fill="white"/>
</g>
<defs>
<clipPath id="clip0_18_515">
<rect width="314" height="280" fill="white"/>
</clipPath>
</defs>
</svg>
